<svg width="259" height="408" viewBox="0 0 259 408" fill="none" xmlns="http://www.w3.org/2000/svg">
<path d="M129.499 408C141.856 407.983 152.867 398.373 157 384H102C106.132 398.373 117.143 407.983 129.499 408Z" fill="#EED91F"/>
<path d="M78 359.25C78.0079 364.632 82.6144 368.993 88.3001 369H170.7C176.386 368.993 180.992 364.632 181 359.25V330H78V359.25Z" fill="#EED91F"/>
<path d="M258.052 112.945C250.785 54.1819 203.985 7.92103 144.67 0.868C139.563 0.290414 134.427 0.0010796 129.286 0C76.8655 0.0798905 29.6653 31.4747 9.73113 79.5202C-10.2031 127.566 1.06263 182.783 38.2663 219.38C58.0501 238.156 69.3801 264.029 69.7037 291.174V306H189.228V291.097C189.319 264.467 200.251 239 219.548 220.465C248.694 192.598 262.95 152.789 258.051 112.949V112.945H258.052Z" fill="#EED91F"/>
<path d="M205 242L140.465 308.032H190.793V292.939C190.854 274.84 195.841 257.272 205 242Z" fill="#D6C321"/>
<path d="M84 365.807L120.924 328.026H180.744V358.017C180.737 363.535 176.242 368.006 170.694 368.013H90.2905C87.9091 368.01 85.7218 367.185 84 365.807Z" fill="#D6C321"/>
<path d="M130.492 408C143.265 407.986 154.648 399.98 158.921 388.006H102.064C106.335 399.98 117.718 407.986 130.492 408Z" fill="#D6C321"/>
<path d="M94 205C77.4483 200.39 69.1724 189.776 69.1724 173.16V159.603C69.1724 150.382 65.4483 145.772 58 145.772V130.228C65.4483 130.228 69.1724 125.595 69.1724 116.329V101.949C69.3103 93.7328 71.4483 87.091 75.5862 82.024C79.7701 76.9571 85.908 73.2824 94 71L98.3448 83.0511C92.5517 85.2422 89.5402 91.3819 89.3103 101.47V116.329C89.3103 126.554 85.0575 133.766 76.5517 137.966C85.0575 142.165 89.3103 149.401 89.3103 159.671V174.461C89.5402 184.55 92.5517 190.689 98.3448 192.88L94 205Z" fill="white"/>
<path d="M115.655 188.909H99.1724L133.448 80.6546H150L115.655 188.909Z" fill="white"/>
<path d="M153.655 192.88C159.448 190.689 162.46 184.55 162.69 174.461V159.603C162.69 149.332 166.966 142.12 175.517 137.966C166.966 133.812 162.69 126.599 162.69 116.329V101.47C162.46 91.3819 159.448 85.2422 153.655 83.0511L158 71C166.23 73.2824 172.414 77.0255 176.552 82.2294C180.69 87.3877 182.782 94.1664 182.828 102.566V116.329C182.828 125.595 186.552 130.228 194 130.228V145.772C186.552 145.772 182.828 150.359 182.828 159.534V174.119C182.506 190.187 174.23 200.481 158 205L153.655 192.88Z" fill="white"/>
</svg>
