<svg width="200" height="200" viewBox="0 0 200 200" fill="none" xmlns="http://www.w3.org/2000/svg">
<path d="M156.4 162.032C157.873 161.341 159.529 161.14 161.124 161.46C161.98 161.6 162.876 161.86 163.456 162.5C164.036 163.14 164.152 164.276 163.48 164.828C163.046 165.123 162.522 165.255 162 165.2C160.748 165.2 159.364 164.964 158.368 165.716C157.796 166.144 157.42 166.856 156.74 167.068C156.398 167.148 156.039 167.113 155.719 166.968C155.398 166.823 155.135 166.577 154.968 166.268C154.645 165.642 154.573 164.917 154.768 164.24C154.852 163.771 155.043 163.328 155.326 162.945C155.609 162.562 155.977 162.25 156.4 162.032Z" fill="#35335E"/>
<path d="M153.088 155.68C153.968 156.932 155.676 156.52 156.468 155.752C157.26 154.984 157.592 153.876 157.896 152.82C158.592 150.4 159.296 147.864 158.78 145.4C158.652 144.66 158.324 143.968 157.832 143.4C157.581 143.118 157.261 142.907 156.903 142.788C156.545 142.668 156.162 142.645 155.792 142.72C154.928 142.948 154.396 143.792 154.008 144.592C152.867 146.964 152.27 149.56 152.26 152.192C152.26 153.416 152.4 154.696 153.088 155.708" fill="#35335E"/>
<path d="M150.676 157.48C151.128 156.89 151.429 156.199 151.553 155.466C151.677 154.734 151.621 153.982 151.388 153.276C150.905 151.871 150.044 150.625 148.9 149.676C147.6 148.519 146.086 147.626 144.444 147.048C143.81 146.792 143.127 146.676 142.444 146.708C142.102 146.727 141.771 146.83 141.478 147.007C141.185 147.184 140.94 147.43 140.764 147.724C140.292 148.62 140.764 149.704 141.228 150.588C142.084 152.149 143.063 153.639 144.156 155.044C145.032 156.176 146.036 157.292 147.376 157.804C148.716 158.316 150.1 158.252 150.808 157.328" fill="#35335E"/>
<path d="M153.032 174.604C153.076 174.418 153.101 174.227 153.108 174.036C153.152 173.636 153.2 173.1 153.26 172.48C153.337 171.713 153.454 170.951 153.612 170.196C153.815 169.278 154.092 168.378 154.44 167.504C154.782 166.631 155.245 165.811 155.816 165.068C156.281 164.462 156.876 163.967 157.556 163.62C158.017 163.391 158.511 163.237 159.02 163.164C159.212 163.157 159.402 163.13 159.588 163.084C159.395 163.063 159.201 163.063 159.008 163.084C158.48 163.127 157.964 163.262 157.484 163.484C156.768 163.821 156.139 164.319 155.648 164.94C155.054 165.695 154.574 166.533 154.224 167.428C153.869 168.314 153.593 169.229 153.4 170.164C153.253 170.928 153.151 171.7 153.096 172.476C153.044 173.136 153.028 173.676 153.02 174.04C153.002 174.228 153.006 174.417 153.032 174.604Z" fill="#263238"/>
<path d="M153.136 173.408C153.148 173.32 153.148 173.232 153.136 173.144V172.4C153.136 171.744 153.136 170.8 153.168 169.6C153.228 167.252 153.428 164.728 153.82 161.168C154.188 157.82 154.684 153.924 155.208 151.392C155.32 150.816 155.432 150.296 155.54 149.844C155.648 149.392 155.728 148.996 155.812 148.68C155.896 148.364 155.94 148.136 155.988 147.944C156.01 147.857 156.026 147.769 156.036 147.68C155.996 147.759 155.965 147.842 155.944 147.928C155.884 148.12 155.812 148.36 155.724 148.656C155.636 148.952 155.524 149.36 155.412 149.812C155.3 150.264 155.168 150.78 155.044 151.356C154.403 154.355 153.921 157.386 153.6 160.436C153.2 164.004 153.032 167.236 153.02 169.604C153.02 170.78 153.02 171.732 153.06 172.404C153.06 172.712 153.092 172.964 153.104 173.16C153.107 173.243 153.118 173.326 153.136 173.408Z" fill="#263238"/>
<path d="M153.152 167.144C153.174 166.878 153.174 166.61 153.152 166.344C153.107 165.627 153.025 164.913 152.908 164.204C152.736 163.151 152.504 162.11 152.212 161.084C151.874 159.821 151.438 158.587 150.908 157.392C150.003 155.189 148.706 153.168 147.08 151.428C146.797 151.131 146.495 150.851 146.176 150.592C146.04 150.472 145.916 150.356 145.776 150.264L145.428 150.024C145.218 149.863 144.995 149.721 144.76 149.6C145.528 150.2 146.256 150.849 146.94 151.544C148.517 153.297 149.781 155.307 150.676 157.488C151.195 158.676 151.633 159.897 151.988 161.144C152.289 162.16 152.536 163.19 152.728 164.232C152.892 165.124 152.988 165.832 153.044 166.352C153.061 166.618 153.097 166.883 153.152 167.144Z" fill="#263238"/>
<path d="M147.096 178.196L147.724 186.796H158.776L159.4 178.196H147.096Z" fill="#263238"/>
<path d="M160.724 174.804H146.032V178.196H160.724V174.804Z" fill="#263238"/>
<path d="M146.032 186.468V187.404H146.72H160.476V186.468H146.032Z" fill="#455A64"/>
<path d="M147.396 189.06L146.72 187.404H159.952L159.16 189.06H147.396Z" fill="#455A64"/>
<path d="M159.2 181.004C159.2 181.004 159.2 181.036 159.148 181.084L158.984 181.304L158.34 182.128L158.312 182.164L158.284 182.124L156.704 179.94H156.8L155.24 182.144L155.192 182.212L155.136 182.148L153.292 179.948H153.396L153.296 180.076L151.644 182.144L151.592 182.216L151.54 182.144C150.98 181.344 150.456 180.608 149.98 179.94H150.072L148.156 182.124L148.12 182.164L148.092 182.12C147.84 181.696 147.64 181.356 147.492 181.112L147.34 180.844C147.32 180.814 147.304 180.782 147.292 180.748C147.292 180.748 147.316 180.772 147.356 180.832L147.528 181.092L148.156 182.08H148.096L149.984 179.868L150.032 179.812L150.076 179.872L151.648 182.068H151.54L153.2 180L153.304 179.872L153.356 179.804L153.408 179.868L155.252 182.072H155.148L156.72 179.876L156.764 179.812L156.812 179.876C157.432 180.768 157.964 181.524 158.36 182.088H158.3L158.972 181.288L159.152 181.08L159.2 181.004Z" fill="#E0E0E0"/>
<path d="M159.556 178.136C159.556 178.176 156.788 178.208 153.372 178.208C149.956 178.208 147.188 178.176 147.188 178.136C147.188 178.096 149.956 178.068 153.372 178.068C156.788 178.068 159.556 178.1 159.556 178.136Z" fill="#455A64"/>
<path d="M160.116 187.5C160.116 187.536 157.104 187.568 153.396 187.568C149.688 187.568 146.676 187.536 146.676 187.5C146.676 187.464 149.684 187.428 153.396 187.428C157.108 187.428 160.116 187.46 160.116 187.5Z" fill="#263238"/>
<path d="M51.12 160.06C51.088 160.096 50.836 159.944 50.556 159.72C50.276 159.496 50.072 159.284 50.104 159.244C50.136 159.204 50.384 159.36 50.664 159.584C50.944 159.808 51.148 160.02 51.12 160.06Z" fill="#263238"/>
<path d="M58.8001 148.604C58.909 147.537 58.8209 146.459 58.5401 145.424C58.2041 144.404 57.4201 143.472 56.3721 143.252C55.1721 143.004 53.9481 143.76 53.2761 144.784C52.6041 145.808 52.3761 147.048 52.1761 148.252C50.8114 156.571 50.3087 165.009 50.6761 173.432L55.5721 174.12C57.7041 165.332 58.4001 157.648 58.8001 148.604Z" fill="#455A64"/>
<path d="M55.672 143.2L55.648 143.28L55.568 143.5L55.24 144.348C55.172 144.532 55.08 144.748 55.008 144.96L54.772 145.7L54.496 146.552L54.244 147.524C53.833 149.129 53.5164 150.758 53.296 152.4C53.032 154.24 52.86 156.28 52.72 158.424C52.472 162.716 52.432 166.612 52.32 169.428C52.268 170.84 52.22 171.98 52.168 172.764C52.14 173.164 52.12 173.448 52.104 173.672C52.104 173.764 52.104 173.844 52.104 173.904C52.104 173.964 52.104 173.984 52.104 173.984C52.104 173.984 52.104 173.96 52.104 173.904C52.104 173.848 52.104 173.764 52.104 173.668C52.104 173.448 52.104 173.144 52.132 172.76C52.164 171.96 52.192 170.836 52.228 169.424C52.308 166.624 52.328 162.712 52.58 158.416C52.716 156.268 52.896 154.224 53.168 152.376C53.3974 150.739 53.7274 149.117 54.156 147.52L54.42 146.548C54.524 146.249 54.62 145.965 54.708 145.696L54.964 144.956C55.04 144.732 55.136 144.532 55.208 144.348L55.568 143.516C55.6053 143.428 55.6373 143.356 55.664 143.3C55.6611 143.266 55.6638 143.233 55.672 143.2Z" fill="#263238"/>
<path d="M56.124 143.22C56.3791 143.521 56.582 143.864 56.724 144.232C57.0983 145.244 57.2498 146.324 57.168 147.4C57.04 150.108 56.796 153.836 56.476 157.956C56.156 162.076 55.792 165.796 55.504 168.488C55.356 169.832 55.232 170.92 55.14 171.688C55.092 172.052 55.056 172.34 55.028 172.552L54.996 172.776C54.9978 172.801 54.9978 172.827 54.996 172.852C54.996 172.852 54.996 172.828 54.996 172.776C54.996 172.724 54.996 172.64 54.996 172.548C54.996 172.336 55.04 172.048 55.072 171.68C55.148 170.912 55.252 169.828 55.38 168.48C55.636 165.784 55.976 162.08 56.3 157.944C56.624 153.808 56.884 150.1 57.044 147.4C57.1311 146.337 56.9948 145.267 56.644 144.26C56.5017 143.899 56.3277 143.551 56.124 143.22Z" fill="#263238"/>
<path d="M59.52 155.896C59.1987 155.873 58.8843 155.791 58.592 155.656C58.2813 155.575 57.9874 155.44 57.724 155.256C58.0457 155.277 58.3605 155.358 58.652 155.496C58.9631 155.576 59.2571 155.712 59.52 155.896Z" fill="#263238"/>
<path d="M60.112 150.904C59.8467 151.116 59.5479 151.282 59.228 151.396C58.9307 151.561 58.6073 151.673 58.272 151.728C58.8329 151.349 59.4555 151.07 60.112 150.904Z" fill="#263238"/>
<path d="M59.804 146.828C59.3205 146.915 58.8228 146.881 58.356 146.728C58.5926 146.66 58.8418 146.648 59.084 146.692C59.3312 146.681 59.5777 146.728 59.804 146.828Z" fill="#263238"/>
<path d="M54.748 144.22C54.708 144.244 54.4921 143.976 54.2721 143.624C54.1119 143.42 53.9986 143.184 53.9401 142.932C53.9801 142.908 54.1961 143.172 54.4201 143.528C54.6441 143.884 54.8 144.192 54.748 144.22Z" fill="#263238"/>
<path d="M53.08 146.684C52.8573 146.764 52.6184 146.789 52.384 146.756C52.1483 146.779 51.9107 146.743 51.692 146.652C51.9148 146.572 52.1536 146.547 52.388 146.58C52.6237 146.557 52.8614 146.593 53.08 146.684Z" fill="#263238"/>
<path d="M51.88 151.6C51.624 151.59 51.3736 151.521 51.148 151.4C50.901 151.33 50.6728 151.205 50.48 151.036C50.736 151.046 50.9863 151.115 51.212 151.236C51.4589 151.306 51.6871 151.431 51.88 151.6Z" fill="#263238"/>
<path d="M51.752 155.756C51.752 155.804 51.484 155.904 51.128 155.976C50.772 156.048 50.48 156.076 50.468 156.028C50.456 155.98 50.74 155.88 51.092 155.808C51.3043 155.736 51.5311 155.718 51.752 155.756Z" fill="#263238"/>
<path d="M51.2 162.54C51.2 162.588 50.912 162.68 50.536 162.748C50.3114 162.815 50.0738 162.826 49.844 162.78C50.0458 162.66 50.2735 162.59 50.508 162.576C50.7321 162.507 50.9699 162.494 51.2 162.54Z" fill="#263238"/>
<path d="M50.8 166.284C50.824 166.324 50.576 166.5 50.248 166.684C49.92 166.868 49.636 166.964 49.616 166.92C49.596 166.876 49.84 166.704 50.168 166.52C50.496 166.336 50.8 166.24 50.8 166.284Z" fill="#263238"/>
<path d="M53.8681 170.532C53.8281 170.556 53.6121 170.26 53.3881 169.868C53.226 169.644 53.1142 169.387 53.0601 169.116C53.1001 169.092 53.3161 169.388 53.5401 169.78C53.7021 170.004 53.8139 170.261 53.8681 170.532Z" fill="#263238"/>
<path d="M54.752 163.472C54.784 163.504 54.544 163.796 54.216 164.12C53.888 164.444 53.592 164.676 53.556 164.64C53.52 164.604 53.764 164.316 54.092 163.992C54.42 163.668 54.716 163.436 54.752 163.472Z" fill="#263238"/>
<path d="M54.556 159.764C54.52 159.8 54.3 159.616 54.06 159.364C53.8201 159.112 53.6601 158.868 53.6921 158.836C53.7241 158.804 53.9481 158.984 54.188 159.236C54.428 159.488 54.592 159.732 54.556 159.764Z" fill="#263238"/>
<path d="M55.164 155.032C55.2 155.064 55 155.348 54.716 155.66C54.432 155.972 54.1761 156.208 54.1401 156.176C54.1041 156.144 54.3041 155.86 54.5841 155.544C54.8641 155.228 55.128 155 55.164 155.032Z" fill="#263238"/>
<path d="M55.504 151.6C55.468 151.636 55.192 151.416 54.88 151.112C54.568 150.808 54.348 150.532 54.38 150.496C54.412 150.46 54.692 150.68 55.004 150.988C55.316 151.296 55.536 151.564 55.504 151.6Z" fill="#263238"/>
<path d="M56.176 146.952C56.1231 147.204 56.0152 147.442 55.86 147.648C55.648 148.008 55.44 148.28 55.4 148.256C55.36 148.232 55.496 147.92 55.712 147.56C55.928 147.2 56.132 146.928 56.176 146.952Z" fill="#263238"/>
<path d="M57.436 142.648C57.48 142.672 57.356 142.984 57.16 143.344C56.964 143.704 56.76 143.98 56.728 143.96C56.7661 143.71 56.8605 143.472 57.004 143.264C57.2 142.9 57.392 142.628 57.436 142.648Z" fill="#263238"/>
<path d="M58.868 144.604C58.888 144.648 58.692 144.784 58.428 144.912C58.164 145.04 57.936 145.104 57.916 145.06C57.896 145.016 58.092 144.88 58.356 144.752C58.62 144.624 58.848 144.56 58.868 144.604Z" fill="#263238"/>
<path d="M58.9001 160.06C58.2356 160.012 57.6064 159.743 57.1121 159.296C57.4235 159.39 57.7249 159.515 58.0121 159.668C58.3207 159.768 58.6182 159.899 58.9001 160.06Z" fill="#263238"/>
<path d="M58.316 163.332C58.316 163.38 58.032 163.476 57.656 163.548C57.4325 163.62 57.1947 163.635 56.964 163.592C57.1641 163.469 57.3901 163.395 57.624 163.376C58 163.304 58.308 163.284 58.316 163.332Z" fill="#263238"/>
<path d="M57.6001 168.944C57.5721 168.984 57.2001 168.724 56.8561 168.292C56.627 168.045 56.4658 167.744 56.3881 167.416C56.6116 167.654 56.8137 167.911 56.9921 168.184C57.2176 168.418 57.4212 168.673 57.6001 168.944Z" fill="#263238"/>
<path d="M49.7241 171.512C49.6921 171.476 49.8921 171.252 50.1681 171.016C50.4441 170.78 50.6961 170.616 50.7281 170.656C50.7601 170.696 50.5601 170.912 50.2841 171.152C50.0081 171.392 49.7561 171.548 49.7241 171.512Z" fill="#263238"/>
<path d="M47.46 159.264C47.14 158.268 46.544 157.108 45.5 157.092C45.189 157.109 44.8882 157.209 44.6292 157.382C44.3702 157.555 44.1625 157.795 44.028 158.076C43.7407 158.631 43.6029 159.251 43.628 159.876C43.757 164.309 44.5125 168.702 45.872 172.924H49.7C49.6537 168.283 48.8983 163.677 47.46 159.264Z" fill="#455A64"/>
<path d="M40.544 152.996C40.3546 152.063 39.8574 151.221 39.132 150.604C38.4067 149.988 37.4953 149.633 36.544 149.596C34.852 149.892 34.196 151.556 33.996 153.26C33.796 154.964 34.324 156.66 34.848 158.296C36.5226 163.544 38.2 168.793 39.88 174.044L44.64 173.524C43.152 166.492 42.288 159.972 40.544 152.996Z" fill="#455A64"/>
<path d="M45.5 157.092C45.3763 157.262 45.2679 157.443 45.176 157.632C44.9787 158.173 44.9169 158.754 44.996 159.324C45.068 160.052 45.152 160.924 45.276 161.884C45.4 162.844 45.572 163.884 45.788 164.996C46.22 167.196 46.708 169.164 47.016 170.596C47.172 171.312 47.292 171.896 47.364 172.3C47.396 172.488 47.424 172.64 47.444 172.768C47.464 172.896 47.468 172.932 47.444 172.932C47.4232 172.882 47.4071 172.829 47.396 172.776L47.284 172.316C47.18 171.888 47.044 171.316 46.884 170.624C46.544 169.192 46.036 167.228 45.604 165.024C45.388 163.92 45.204 162.864 45.104 161.896C45.04 161.416 45 160.952 44.96 160.524C44.92 160.096 44.88 159.692 44.86 159.324C44.7916 158.737 44.8742 158.142 45.1 157.596C45.1952 157.401 45.3317 157.229 45.5 157.092Z" fill="#263238"/>
<path d="M36.6321 149.46C36.42 149.702 36.2273 149.96 36.056 150.232C35.618 150.992 35.3696 151.847 35.332 152.724C35.3122 154.024 35.5109 155.318 35.9201 156.552C36.3201 157.968 36.796 159.524 37.28 161.152C38.2281 164.416 39.0841 167.368 39.7121 169.524L40.4321 172.068C40.5121 172.356 40.5721 172.584 40.6201 172.76C40.6462 172.839 40.6636 172.921 40.6721 173.004C40.6354 172.93 40.6059 172.852 40.5841 172.772C40.5321 172.596 40.4561 172.372 40.3681 172.084C40.1801 171.472 39.9161 170.612 39.5961 169.56L37.1121 161.2C36.632 159.564 36.1801 158 35.7641 156.592C35.3566 155.34 35.1685 154.028 35.208 152.712C35.2596 151.818 35.5347 150.952 36.008 150.192C36.1742 149.915 36.3851 149.668 36.6321 149.46Z" fill="#263238"/>
<path d="M43.62 173.016C43.5798 172.942 43.5437 172.866 43.512 172.788C43.452 172.632 43.352 172.412 43.244 172.116C43.016 171.532 42.724 170.672 42.444 169.592C42.164 168.512 41.844 167.192 41.556 165.752C41.268 164.312 40.98 162.7 40.66 161.02C40.34 159.34 39.964 157.76 39.536 156.348C39.1647 155.093 38.7008 153.867 38.148 152.68C37.7723 151.881 37.3433 151.109 36.864 150.368C36.7 150.104 36.552 149.908 36.464 149.772C36.4139 149.704 36.3698 149.632 36.332 149.556C36.3907 149.615 36.4442 149.68 36.492 149.748C36.592 149.884 36.748 150.068 36.92 150.332C37.4259 151.061 37.874 151.829 38.26 152.628C38.8338 153.812 39.3113 155.04 39.688 156.3C40.1398 157.842 40.511 159.407 40.8 160.988C41.116 162.664 41.412 164.264 41.684 165.724C41.956 167.184 42.244 168.476 42.532 169.56C42.82 170.644 43.088 171.504 43.296 172.092C43.392 172.392 43.484 172.616 43.536 172.772C43.5731 172.85 43.6013 172.932 43.62 173.016Z" fill="#263238"/>
<path d="M34.952 157.512C34.952 157.556 34.704 157.66 34.372 157.74C34.04 157.82 33.764 157.848 33.756 157.8C33.748 157.752 34 157.652 34.332 157.572C34.664 157.492 34.94 157.464 34.952 157.512Z" fill="#263238"/>
<path d="M34.448 154.264C34.188 154.337 33.9177 154.367 33.648 154.352C33.3819 154.39 33.1114 154.381 32.848 154.328C33.0971 154.209 33.3727 154.157 33.648 154.176C33.9178 154.137 34.1932 154.167 34.448 154.264Z" fill="#263238"/>
<path d="M34.984 151.296C34.952 151.336 34.692 151.168 34.408 150.924C34.124 150.68 33.912 150.452 33.944 150.416C33.976 150.38 34.232 150.544 34.52 150.788C34.808 151.032 35.016 151.26 34.984 151.296Z" fill="#263238"/>
<path d="M36.436 148.552C36.484 148.552 36.468 148.796 36.464 149.072C36.46 149.348 36.464 149.584 36.404 149.592C36.344 149.6 36.28 149.368 36.288 149.068C36.296 148.768 36.4 148.54 36.436 148.552Z" fill="#263238"/>
<path d="M39.4 149.844C39.44 149.872 39.324 150.108 39.14 150.368C38.956 150.628 38.776 150.82 38.74 150.792C38.704 150.764 38.816 150.532 38.996 150.268C39.176 150.004 39.36 149.816 39.4 149.844Z" fill="#263238"/>
<path d="M41.324 153.2C41.324 153.248 41.096 153.388 40.776 153.52C40.456 153.652 40.176 153.72 40.16 153.676C40.144 153.632 40.388 153.488 40.708 153.36C41.028 153.232 41.308 153.144 41.324 153.2Z" fill="#263238"/>
<path d="M42.492 156.628C42.2804 156.812 42.0183 156.927 41.74 156.96C41.4734 157.046 41.1879 157.056 40.916 156.988C41.1727 156.886 41.4417 156.819 41.716 156.788C41.9672 156.703 42.2278 156.65 42.492 156.628Z" fill="#263238"/>
<path d="M37.132 155.652C37.088 155.652 37.132 155.4 37.208 155.12C37.284 154.84 37.404 154.628 37.448 154.644C37.492 154.66 37.448 154.896 37.372 155.176C37.296 155.456 37.2 155.668 37.132 155.652Z" fill="#263238"/>
<path d="M37.88 159.972C37.8962 159.72 37.9701 159.475 38.096 159.256C38.26 158.88 38.428 158.592 38.472 158.612C38.4558 158.864 38.3819 159.109 38.256 159.328C38.092 159.704 37.924 160 37.88 159.972Z" fill="#263238"/>
<path d="M36.0321 161.156C35.7963 161.15 35.564 161.099 35.3481 161.004C34.9841 160.888 34.6881 160.784 34.7001 160.736C34.9381 160.705 35.1801 160.74 35.4001 160.836C35.7721 160.952 36.0521 161.112 36.0321 161.156Z" fill="#263238"/>
<path d="M37.096 164.676C37.124 164.716 36.92 164.908 36.644 165.108C36.368 165.308 36.112 165.436 36.084 165.4C36.056 165.364 36.26 165.164 36.54 164.964C36.82 164.764 37.068 164.636 37.096 164.676Z" fill="#263238"/>
<path d="M37.952 168.188C37.952 168.232 37.712 168.336 37.388 168.412C37.064 168.488 36.796 168.516 36.784 168.472C36.772 168.428 37.024 168.324 37.348 168.244C37.672 168.164 37.94 168.14 37.952 168.188Z" fill="#263238"/>
<path d="M42.5881 159.564C42.6121 159.604 42.3961 159.776 42.0841 159.892C41.7721 160.008 41.4921 160.024 41.4841 159.98C41.4761 159.936 41.7241 159.844 42.0201 159.728C42.3161 159.612 42.5641 159.52 42.5881 159.564Z" fill="#263238"/>
<path d="M43.2481 165.024C43.2281 165.068 42.972 164.992 42.676 164.852C42.38 164.712 42.156 164.564 42.176 164.52C42.196 164.476 42.456 164.556 42.752 164.692C43.048 164.828 43.2721 164.98 43.2481 165.024Z" fill="#263238"/>
<path d="M44.42 168.936C44.1551 168.923 43.896 168.853 43.66 168.732C43.26 168.576 42.952 168.412 42.968 168.364C43.2316 168.378 43.4893 168.447 43.724 168.568C44.124 168.724 44.436 168.888 44.42 168.936Z" fill="#263238"/>
<path d="M38.14 172C38.116 171.956 38.428 171.748 38.788 171.464C39.148 171.18 39.428 170.924 39.464 170.96C39.5 170.996 39.272 171.304 38.896 171.6C38.6868 171.802 38.4247 171.941 38.14 172Z" fill="#263238"/>
<path d="M41.228 170C41.18 170 41.112 169.744 40.992 169.44C40.872 169.136 40.752 168.892 40.792 168.864C40.832 168.836 41.032 169.044 41.156 169.376C41.28 169.708 41.276 170 41.228 170Z" fill="#263238"/>
<path d="M40.4001 165.308C40.3721 165.348 40.1721 165.252 39.9521 165.096C39.7321 164.94 39.5801 164.78 39.6081 164.74C39.6361 164.7 39.8361 164.796 40.0561 164.952C40.2761 165.108 40.4401 165.268 40.4001 165.308Z" fill="#263238"/>
<path d="M47.6 157.94C47.628 157.98 47.432 158.172 47.164 158.368C46.896 158.564 46.656 158.696 46.628 158.656C46.6 158.616 46.792 158.428 47.06 158.228C47.328 158.028 47.6 157.9 47.6 157.94Z" fill="#263238"/>
<path d="M48.7 160.908C48.7 160.956 48.4 161.02 48.024 160.98C47.648 160.94 47.364 160.812 47.376 160.768C47.388 160.724 47.684 160.768 48.044 160.804C48.404 160.84 48.696 160.86 48.7 160.908Z" fill="#263238"/>
<path d="M44.0321 161.576C44.0321 161.62 43.7641 161.72 43.3961 161.744C43.0281 161.768 42.7401 161.708 42.7441 161.66C42.7481 161.612 43.0361 161.596 43.3881 161.572C43.7401 161.548 44.0241 161.528 44.0321 161.576Z" fill="#263238"/>
<path d="M44.436 158.768C44.436 158.816 44.148 158.824 43.836 158.676C43.524 158.528 43.344 158.316 43.376 158.276C43.408 158.236 43.624 158.388 43.908 158.516C44.192 158.644 44.44 158.72 44.436 158.768Z" fill="#263238"/>
<path d="M49.1 164.096C49.076 164.136 48.784 164 48.448 163.788C48.112 163.576 47.864 163.388 47.892 163.332C47.92 163.276 48.208 163.432 48.544 163.64C48.88 163.848 49.128 164.056 49.1 164.096Z" fill="#263238"/>
<path d="M60.488 172.424H35.588V176.836H60.488V172.424Z" fill="#35335E"/>
<path d="M37.448 175.964L40.476 189.152H55.316L58.628 175.964H37.448Z" fill="#35335E"/>
<path d="M60.4761 176.844C60.4761 176.892 54.8761 176.932 47.9321 176.932C40.9881 176.932 35.3881 176.892 35.3881 176.844C35.3881 176.796 40.9881 176.756 47.9321 176.756C54.8761 176.756 60.4761 176.8 60.4761 176.844Z" fill="#263238"/>
<path d="M46.628 161.672C46.588 161.696 46.416 161.5 46.248 161.228C46.08 160.956 45.976 160.716 46.016 160.692C46.056 160.668 46.228 160.864 46.396 161.136C46.564 161.408 46.668 161.644 46.628 161.672Z" fill="#263238"/>
<path d="M46.636 165.22C46.6241 164.99 46.6694 164.76 46.768 164.552C46.884 164.196 47.02 163.92 47.064 163.936C47.0763 164.168 47.031 164.398 46.932 164.608C46.8 164.96 46.684 165.236 46.636 165.22Z" fill="#263238"/>
<path d="M47.852 168.948C47.808 168.972 47.624 168.672 47.452 168.284C47.314 168.059 47.2267 167.806 47.196 167.544C47.24 167.52 47.424 167.82 47.596 168.208C47.7341 168.433 47.8214 168.686 47.852 168.948Z" fill="#263238"/>
<path d="M45.224 171.948C45.188 171.916 45.336 171.688 45.556 171.432C45.776 171.176 45.98 171 46.02 171.032C46.06 171.064 45.908 171.296 45.688 171.548C45.468 171.8 45.26 172 45.224 171.948Z" fill="#263238"/>
<path d="M44.672 166.504C44.672 166.552 44.424 166.548 44.136 166.504C43.848 166.46 43.624 166.376 43.632 166.328C43.64 166.28 43.88 166.284 44.164 166.328C44.448 166.372 44.68 166.456 44.672 166.504Z" fill="#263238"/>
<path d="M131.3 142.096H72.252V189.184H131.3V142.096Z" fill="#E0E0E0"/>
<g opacity="0.3">
<path opacity="0.3" d="M76.552 142.192C83.504 144.672 91.172 145.204 98.632 145.344C100.18 145.372 101.744 145.368 103.24 145.744C104.736 146.12 106.18 146.972 106.948 148.312C107.784 149.772 107.696 151.6 107.22 153.212C106.744 154.824 105.924 156.316 105.332 157.888C104.284 160.669 103.963 163.672 104.4 166.612C104.535 167.864 104.956 169.069 105.632 170.132C105.974 170.66 106.436 171.101 106.979 171.419C107.522 171.737 108.132 171.924 108.76 171.964C111.004 171.996 112.54 169.792 113.652 167.84C118.216 159.84 123.152 150.76 126.072 142.028L76.552 142.192Z" fill="black"/>
</g>
<path d="M92.3719 188.932C92.3119 188.932 92.2679 178.496 92.2679 165.624C92.2679 152.752 92.3119 142.312 92.3719 142.312C92.4319 142.312 92.4759 152.748 92.4759 165.624C92.4759 178.5 92.4279 188.932 92.3719 188.932Z" fill="#455A64"/>
<path d="M116.568 107.296C116.392 106.12 112.88 102.24 112.88 102.24C112.88 102.24 111.128 95.196 110.6 93.12C110.424 92.5198 110.167 91.9465 109.836 91.416C108.594 89.3472 106.828 87.6431 104.716 86.476L99.8559 83.744L98.6959 81.16L87.0239 75.16L83.8599 80.76C83.8599 80.76 76.1759 83.2 75.1599 84.932C74.1439 86.664 75.6639 110.052 75.6639 110.052C75.6639 110.052 72.4639 123.54 71.7719 126.332C71.0799 129.124 71.9879 132.452 71.9879 132.452L77.7119 125.272C79.4919 123.04 83.3959 122.012 86.1999 122.052L110.164 122.16L109.2 115.448L128.588 119.2C128.588 119.2 131.92 112.696 132.188 112.568C132.456 112.44 116.568 107.296 116.568 107.296Z" fill="#35335E"/>
<path d="M86.528 82.9401C86.36 82.7681 87.88 87.908 89.792 93.144C90.8206 95.9735 91.3445 98.9615 91.34 101.972V120.932L102.828 120.152L101.112 107.664C101.112 107.664 99.712 99.608 99.32 96.544C98.96 93.744 97.72 86.144 97.72 86.144C97.72 86.144 91.34 87.8401 86.528 82.9401Z" fill="white"/>
<path d="M112.024 112C112.006 111.904 112.006 111.805 112.024 111.708C112.05 111.446 112.101 111.188 112.176 110.936C112.419 110.095 112.87 109.328 113.488 108.708C114.109 108.089 114.875 107.636 115.716 107.388C115.968 107.313 116.226 107.262 116.488 107.236C116.583 107.218 116.681 107.218 116.776 107.236C116.776 107.272 116.376 107.316 115.76 107.528C114.96 107.802 114.234 108.256 113.637 108.854C113.04 109.453 112.588 110.18 112.316 110.98C112.104 111.6 112.06 112 112.024 112Z" fill="#263238"/>
<path d="M112.616 107.456C113.15 107.143 113.753 106.968 114.372 106.948C114.984 106.863 115.609 106.938 116.184 107.164C116.184 107.228 115.384 107.072 114.388 107.164C113.392 107.256 112.64 107.516 112.616 107.456Z" fill="#263238"/>
<g opacity="0.3">
<path opacity="0.3" d="M74.5079 117.804L73.5079 118.932C74.5506 120.219 75.9638 121.155 77.5559 121.612C79.1606 121.953 80.8002 122.1 82.4399 122.052C83.1042 122.084 83.7696 122.021 84.4159 121.864C85.0679 121.676 85.6719 121.308 86.3479 121.268C86.8013 121.27 87.2522 121.335 87.6879 121.46C88.1264 121.584 88.5899 121.591 89.0319 121.48C89.2508 121.421 89.4448 121.293 89.5852 121.115C89.7257 120.937 89.8052 120.719 89.8119 120.492C84.8253 119.035 79.6928 118.133 74.5079 117.804Z" fill="black"/>
</g>
<path d="M107.308 119.252L104.508 116.26L98.688 114.8C98.688 114.8 93.376 116.4 93.248 116.4C93.12 116.4 88.624 115.168 88.624 115.168L87.052 120.936L95.152 121.492L104.4 121.12C104.4 121.12 104.884 120.672 104.596 120.364C104.308 120.056 106.144 120.884 106.36 120.892C106.576 120.9 106.992 121.068 107.28 120.724C107.476 120.468 107.74 119.712 107.308 119.252Z" fill="#FFBE9D"/>
<path d="M104.596 120.344C104.282 120.285 103.974 120.196 103.676 120.08C103.116 119.904 102.336 119.68 101.468 119.44C100.6 119.2 99.8 119.04 99.22 118.94C98.9026 118.899 98.5903 118.825 98.288 118.72C98.6084 118.706 98.9293 118.73 99.244 118.792C100.009 118.899 100.768 119.048 101.516 119.24C102.265 119.43 103.003 119.665 103.724 119.944C104.03 120.04 104.324 120.174 104.596 120.344Z" fill="#EB996E"/>
<path d="M107.308 119.252C106.872 119.142 106.442 119.008 106.02 118.852C105.22 118.588 104.128 118.26 102.9 117.92C101.672 117.58 100.584 117.192 99.7559 117.144C99.3099 117.121 98.8628 117.139 98.4199 117.196C98.5283 117.137 98.6459 117.096 98.7679 117.076C99.0949 117.005 99.4298 116.979 99.7639 116.996C100.62 116.996 101.764 117.36 102.964 117.72C104.164 118.08 105.292 118.412 106.076 118.716C106.476 118.864 106.776 119 106.992 119.096C107.104 119.132 107.211 119.185 107.308 119.252Z" fill="#EB996E"/>
<path d="M75.16 84.932C75.16 84.932 70.98 87.84 69.96 92.024C68.94 96.208 64.536 113.308 65.44 115.864C66.344 118.42 83.92 120.932 83.92 120.932L86.004 112.132L77.076 109.688C77.076 109.688 77.192 101.548 77.304 98.176C77.416 94.804 75.16 84.932 75.16 84.932Z" fill="#35335E"/>
<path d="M85.892 113.456L88.768 114.164L87.036 120.796L84.212 120.344L85.892 113.456Z" fill="white"/>
<path d="M65.376 114.96C65.376 114.96 65.376 115.108 65.42 115.36C65.5172 115.747 65.7308 116.094 66.0319 116.356C66.7959 117.068 68.2559 117.66 70.1039 117.992C70.9479 118.272 71.9119 118.492 72.9399 118.724C73.9679 118.956 75.0799 119.192 76.2479 119.428C78.5879 119.908 81.1759 120.412 83.9199 120.924L83.7999 121C83.9959 120.2 84.1999 119.324 84.4199 118.448C84.9119 116.448 85.3919 114.48 85.8439 112.628L85.9159 112.748L77.9999 110.504C76.907 110.044 75.7243 109.836 74.5399 109.896C73.6398 109.946 72.7556 110.155 71.9279 110.512C71.4019 110.74 70.8995 111.018 70.4279 111.344L70.0639 111.608C70.0242 111.64 69.9813 111.668 69.9359 111.692C69.9359 111.692 69.9719 111.652 70.0479 111.588C70.1239 111.524 70.2399 111.424 70.3999 111.304C70.8645 110.959 71.3647 110.666 71.8919 110.428C72.7249 110.05 73.6193 109.827 74.5319 109.768C75.7371 109.691 76.9438 109.891 78.0599 110.352L85.9999 112.576L86.0959 112.6L86.0719 112.696C85.6199 114.548 85.1439 116.5 84.6559 118.52C84.4399 119.392 84.2319 120.256 84.0319 121.068L84.0079 121.164H83.9119C81.1679 120.648 78.5839 120.136 76.2439 119.648C75.0759 119.404 73.9679 119.16 72.9359 118.92C71.9039 118.68 70.9359 118.452 70.0879 118.16C68.2159 117.804 66.756 117.188 65.984 116.44C65.6778 116.165 65.4676 115.799 65.384 115.396C65.3551 115.252 65.3524 115.105 65.376 114.96Z" fill="#263238"/>
<path d="M77.5639 110.284C77.5399 110.312 77.2399 110.036 76.7039 109.68C75.3002 108.74 73.6409 108.255 71.9519 108.292C71.3039 108.292 70.9079 108.38 70.8999 108.344C71.235 108.223 71.5876 108.157 71.9439 108.148C73.6794 108.022 75.4025 108.523 76.7999 109.56C77.0928 109.758 77.3509 110.002 77.5639 110.284Z" fill="#263238"/>
<path d="M78.736 95.9641C78.7507 96.1424 78.7507 96.3217 78.736 96.5C78.736 96.848 78.7 97.344 78.652 97.96C78.552 99.188 78.372 100.88 78.048 102.736C77.7948 104.324 77.4245 105.891 76.94 107.424C76.844 107.716 76.74 107.98 76.656 108.224L76.4 108.8C76.325 108.964 76.2325 109.12 76.124 109.264C76.1742 109.093 76.2412 108.926 76.324 108.768C76.392 108.596 76.464 108.4 76.548 108.184C76.632 107.968 76.712 107.688 76.8 107.384C77.2372 105.845 77.5858 104.283 77.844 102.704C78.164 100.856 78.368 99.172 78.504 97.948C78.564 97.368 78.616 96.884 78.656 96.5C78.6612 96.3188 78.6881 96.1389 78.736 95.9641Z" fill="#263238"/>
<path d="M88.9279 91.432C88.9279 91.432 88.8879 91.324 88.7919 91.136C88.6497 90.8695 88.4418 90.6438 88.1879 90.48C88.0001 90.3512 87.7854 90.2669 87.5601 90.2336C87.3349 90.2004 87.1049 90.219 86.8879 90.288C86.6129 90.3822 86.3671 90.5464 86.1749 90.7646C85.9827 90.9828 85.8507 91.2473 85.7919 91.532L85.7359 91.816L85.6119 91.552C85.1441 90.5479 84.7367 89.5168 84.3919 88.464C83.7808 86.7104 83.475 84.865 83.4879 83.008C83.4879 82.652 83.5359 82.332 83.5559 82.048C83.5759 81.764 83.6399 81.528 83.6839 81.336C83.7262 81.1342 83.785 80.9362 83.8599 80.744C83.7235 81.4914 83.6473 82.2485 83.6319 83.008C83.6649 84.8445 83.9875 86.6642 84.5879 88.4C84.933 89.4446 85.3335 90.4701 85.7879 91.472L85.6079 91.496C85.6769 91.1814 85.8275 90.8906 86.0444 90.6525C86.2614 90.4145 86.5371 90.2378 86.8439 90.14C87.0821 90.0681 87.3337 90.0528 87.5788 90.0951C87.8239 90.1375 88.0557 90.2364 88.2559 90.384C88.5158 90.5667 88.7205 90.8171 88.8479 91.108C88.8829 91.1846 88.9084 91.2652 88.9239 91.348C88.9319 91.4 88.9359 91.432 88.9279 91.432Z" fill="#263238"/>
<path d="M98.6799 92.332C98.6371 92.176 98.6063 92.0168 98.5879 91.856C98.5005 91.4151 98.4722 90.9644 98.5039 90.516C98.594 89.8261 98.9376 89.1944 99.4679 88.744C99.796 88.4741 100.207 88.3258 100.632 88.324C100.863 88.3214 101.093 88.369 101.304 88.4636C101.515 88.5582 101.704 88.6976 101.856 88.872L101.68 88.976L101.3 88.02C100.552 86.136 99.8879 84.42 99.4159 83.184L98.8679 81.708C98.7918 81.5318 98.7341 81.3482 98.6959 81.16C98.7944 81.3254 98.8774 81.4995 98.9439 81.68C99.1039 82.08 99.3079 82.548 99.5559 83.132C100.064 84.36 100.756 86.06 101.496 87.932L101.872 88.892L102.116 89.508L101.716 88.992C101.584 88.8388 101.42 88.7165 101.235 88.6335C101.051 88.5506 100.85 88.5091 100.648 88.512C100.267 88.5096 99.8972 88.6381 99.5999 88.876C99.1001 89.294 98.7666 89.8772 98.6599 90.52C98.6169 90.9581 98.6249 91.3998 98.6839 91.836C98.703 92.0009 98.7016 92.1675 98.6799 92.332Z" fill="#263238"/>
<path d="M106.1 93.324C106.156 93.324 107.06 99.396 108.12 106.904C109.18 114.412 109.988 120.504 109.932 120.504C109.876 120.504 108.972 114.432 107.912 106.904C106.852 99.376 106.044 93.332 106.1 93.324Z" fill="#263238"/>
<g opacity="0.3">
<path opacity="0.3" d="M84.512 88.528C84.5606 90.0834 84.8984 91.6162 85.508 93.048C85.944 92.508 86.428 91.94 87.108 91.78C87.932 91.584 88.768 92.092 89.364 92.716C89.2607 92.0921 89.0143 91.5006 88.644 90.988C88.4591 90.7361 88.2185 90.5302 87.941 90.3866C87.6634 90.243 87.3564 90.1654 87.044 90.16C86.7325 90.1673 86.4325 90.2783 86.1912 90.4754C85.9499 90.6724 85.7813 90.9443 85.712 91.248L84.564 88.556" fill="black"/>
</g>
<path d="M77.756 92.924C77.72 92.924 77.732 92.504 77.612 91.852C77.4476 91.0025 77.1173 90.1937 76.64 89.472C76.3712 89.0813 76.0644 88.7182 75.724 88.388C75.4419 88.121 75.1352 87.8813 74.808 87.672C74.244 87.316 73.848 87.18 73.864 87.144C73.9622 87.1511 74.0583 87.1755 74.148 87.216C74.26 87.2462 74.3685 87.2877 74.472 87.34C74.6102 87.3995 74.7439 87.469 74.872 87.548C75.2199 87.7447 75.5458 87.978 75.844 88.244C76.2027 88.5783 76.5234 88.9512 76.8 89.356C77.2958 90.099 77.6184 90.9438 77.744 91.828C77.7838 92.0927 77.7972 92.3607 77.784 92.628C77.784 92.82 77.772 92.924 77.756 92.924Z" fill="#263238"/>
<path d="M100.976 64.4C100.747 62.2581 99.721 60.2808 98.1008 58.8614C96.4805 57.442 94.3853 56.6846 92.232 56.74H91.788C87.008 57.14 84.68 61.424 85.216 66.188L86.528 82.948L87.084 83.628C88.3322 85.1615 90.0526 86.239 91.9772 86.6926C93.9017 87.1463 95.9222 86.9506 97.7239 86.136L97.3559 80.744C97.3559 80.744 101.94 79.912 101.876 75.312C101.848 73.08 101.416 68.512 100.976 64.4Z" fill="#FFBE9D"/>
<path d="M97.392 80.732C95.2577 80.7914 93.1514 80.236 91.324 79.132C91.324 79.132 92.824 82.408 97.404 81.876L97.392 80.732Z" fill="#EB996E"/>
<path d="M99.52 68.184C99.5246 68.3549 99.4631 68.5209 99.3484 68.6475C99.2336 68.7742 99.0745 68.8517 98.904 68.864C98.8206 68.8723 98.7365 68.8639 98.6564 68.8393C98.5763 68.8147 98.5019 68.7744 98.4375 68.7208C98.3731 68.6672 98.32 68.6014 98.2813 68.5271C98.2426 68.4528 98.219 68.3715 98.212 68.288C98.2065 68.1169 98.2676 67.9503 98.3825 67.8235C98.4975 67.6966 98.6572 67.6193 98.828 67.608C98.9115 67.5992 98.9959 67.6072 99.0762 67.6316C99.1565 67.656 99.2311 67.6962 99.2957 67.7499C99.3602 67.8036 99.4133 67.8697 99.4518 67.9442C99.4903 68.0188 99.5135 68.1003 99.52 68.184Z" fill="#263238"/>
<path d="M99.812 65.684C99.76 65.764 99.24 65.82 98.612 66.156C97.984 66.492 97.616 66.912 97.532 66.904C97.448 66.896 97.532 66.788 97.688 66.6C97.9272 66.3347 98.2116 66.1139 98.528 65.948C98.8299 65.7793 99.1611 65.6693 99.504 65.624C99.74 65.6 99.84 65.644 99.812 65.684Z" fill="#263238"/>
<path d="M92.88 68.532C92.8876 68.7036 92.8272 68.8713 92.7118 68.9987C92.5965 69.126 92.4356 69.2027 92.264 69.212C92.1805 69.2208 92.0961 69.2128 92.0158 69.1884C91.9355 69.164 91.8609 69.1238 91.7964 69.0701C91.7319 69.0164 91.6788 68.9503 91.6402 68.8758C91.6017 68.8012 91.5785 68.7197 91.572 68.636C91.5664 68.4649 91.6276 68.2983 91.7425 68.1714C91.8574 68.0446 92.0172 67.9673 92.188 67.956C92.2715 67.9472 92.3559 67.9552 92.4362 67.9796C92.5165 68.0039 92.5911 68.0441 92.6556 68.0978C92.7201 68.1515 92.7732 68.2176 92.8118 68.2922C92.8503 68.3668 92.8735 68.4483 92.88 68.532Z" fill="#263238"/>
<path d="M92.8 66.648C92.708 66.648 92.28 66.38 91.6 66.212C90.92 66.044 90.356 66.08 90.296 66.024C90.236 65.968 90.368 65.944 90.612 65.924C90.9684 65.9014 91.3261 65.9351 91.672 66.024C92.0068 66.1035 92.326 66.2387 92.616 66.424C92.776 66.552 92.824 66.64 92.8 66.648Z" fill="#263238"/>
<path d="M95.552 72.14C95.9226 72.0162 96.3067 71.937 96.696 71.904C96.876 71.904 97.044 71.84 97.072 71.716C97.0833 71.5306 97.0372 71.3463 96.94 71.188L96.368 69.824C95.568 67.888 95 66.292 95.08 66.264C95.16 66.236 95.88 67.776 96.652 69.712C96.844 70.192 97.028 70.648 97.2 71.084C97.3181 71.2985 97.3577 71.5474 97.312 71.788C97.2871 71.8525 97.2479 71.9105 97.1973 71.9576C97.1468 72.0047 97.0861 72.0397 97.02 72.06C96.9215 72.0909 96.8192 72.1084 96.716 72.112C96.3308 72.1712 95.9396 72.1807 95.552 72.14Z" fill="#263238"/>
<path d="M92.8 63.92C92.72 64.108 92.02 63.984 91.2 64.04C90.38 64.096 89.684 64.296 89.6 64.116C89.552 64.032 89.68 63.856 89.956 63.684C90.3273 63.4727 90.742 63.3491 91.1684 63.3228C91.5948 63.2964 92.0215 63.368 92.416 63.532C92.68 63.672 92.824 63.828 92.8 63.92Z" fill="#263238"/>
<path d="M99.7959 64.076C99.6399 64.24 99.0319 64.076 98.3039 64.076C97.5759 64.076 96.956 64.2 96.812 64.032C96.748 63.952 96.844 63.788 97.112 63.632C97.4815 63.4383 97.8949 63.3432 98.3119 63.356C98.7324 63.3531 99.1462 63.4607 99.5119 63.668C99.7759 63.832 99.8639 64 99.7959 64.076Z" fill="#263238"/>
<path d="M102.316 60.312C102.275 60.102 102.16 59.9142 101.99 59.7837C101.821 59.6533 101.609 59.5894 101.396 59.604C101.626 59.5385 101.841 59.4284 102.028 59.28C102.121 59.2049 102.191 59.1049 102.23 58.9917C102.269 58.8785 102.275 58.7566 102.248 58.64C102.128 58.284 101.672 58.208 101.312 58.108C100.839 57.9707 100.42 57.6914 100.112 57.308C99.6759 56.756 99.5079 56.036 99.1279 55.44C98.8825 55.0553 98.5539 54.7304 98.1664 54.4895C97.7788 54.2485 97.3421 54.0975 96.8885 54.0476C96.4348 53.9977 95.9758 54.0502 95.5451 54.2012C95.1144 54.3521 94.7231 54.5978 94.3999 54.92C94.047 54.5572 93.6126 54.2839 93.1328 54.1228C92.6529 53.9617 92.1416 53.9174 91.6412 53.9937C91.1409 54.07 90.666 54.2646 90.256 54.5614C89.846 54.8582 89.5127 55.2485 89.2839 55.7C88.6703 55.4441 87.9992 55.3579 87.3408 55.4504C86.6824 55.5429 86.0611 55.8107 85.5417 56.2258C85.0224 56.6408 84.6242 57.1879 84.3888 57.8097C84.1534 58.4315 84.0896 59.1051 84.2039 59.76L87.0679 61.516C87.0912 61.2982 87.1604 61.0878 87.271 60.8987C87.3815 60.7096 87.531 60.5462 87.7095 60.4191C87.8879 60.2921 88.0913 60.2044 88.3062 60.1618C88.521 60.1192 88.7425 60.1227 88.9559 60.172C89.8199 60.424 90.3719 61.424 91.2679 61.492C91.9679 61.544 92.5639 61.004 93.2399 60.824C94.0599 60.604 94.9279 60.932 95.6679 61.348C96.4079 61.764 97.1159 62.284 97.9399 62.492C98.9242 62.6893 99.9457 62.5674 100.856 62.144C101.26 62.0022 101.629 61.7743 101.936 61.476C102.087 61.3263 102.201 61.1426 102.267 60.9401C102.333 60.7376 102.35 60.5223 102.316 60.312Z" fill="#263238"/>
<path d="M87.5519 60.164L100.672 60.092C100.199 59.2103 99.5107 58.4619 98.6719 57.916C96.9297 56.6429 94.8298 55.9528 92.6719 55.944C90.5319 55.944 86.2519 58.692 84.7439 60.208C83.5439 61.408 83.5759 62.444 83.5759 62.444C83.4239 64.148 84.4279 66.044 84.8559 67.712C85.0719 68.568 85.5239 71.16 85.5239 71.16C86.2439 71.14 86.4959 70.556 86.3679 69.844L86.1559 67.044C86.8639 66.4534 87.3598 65.6479 87.5685 64.7499C87.7771 63.8518 87.687 62.9102 87.3119 62.068C87.1319 61.82 86.6999 60.664 87.5519 60.164Z" fill="#263238"/>
<path d="M85.968 66.86C85.3 64.54 84.684 62.0601 85.396 59.7401H84.996L84.836 59.856C84.4661 59.7318 84.0663 59.7285 83.6945 59.8469C83.3226 59.9652 82.9982 60.1989 82.7681 60.514C82.5381 60.8292 82.4145 61.2095 82.4152 61.5997C82.4159 61.9899 82.5408 62.3697 82.772 62.6841C82.3819 62.6806 82.0041 62.8198 81.7094 63.0754C81.4148 63.331 81.2237 63.6854 81.172 64.072C81.1733 64.6108 81.3213 65.139 81.6 65.6C81.8793 66.0624 82.0503 66.5821 82.1 67.1201C82.1168 67.3879 82.0386 67.6531 81.8791 67.869C81.7196 68.0848 81.489 68.2375 81.228 68.3C81.3544 68.5729 81.571 68.7939 81.8413 68.9258C82.1116 69.0577 82.4191 69.0924 82.712 69.024C82.5252 69.48 82.2132 69.8739 81.812 70.16C82.668 70.744 83.84 70.56 84.768 70.092C85.3437 69.8605 85.8137 69.4247 86.088 68.868C86.344 68.224 86.152 67.516 85.968 66.86Z" fill="#263238"/>
<path d="M85.752 69.568C85.672 69.536 82.552 68.716 82.748 71.856C82.944 74.996 86.048 74.168 86.048 74.076C86.048 73.984 85.752 69.568 85.752 69.568Z" fill="#FFBE9D"/>
<path d="M85.2959 72.936C85.2959 72.936 85.2439 72.976 85.1519 73.024C85.0276 73.0857 84.8844 73.0971 84.7519 73.056C84.4119 72.952 84.1039 72.444 84.0559 71.876C84.0317 71.6046 84.0686 71.3313 84.1639 71.076C84.1894 70.9751 84.2392 70.8818 84.3089 70.8045C84.3786 70.7271 84.4662 70.6679 84.5639 70.632C84.626 70.6127 84.6928 70.6152 84.7533 70.6393C84.8137 70.6633 84.8641 70.7073 84.8959 70.764C84.9439 70.848 84.9239 70.912 84.9439 70.92C84.9639 70.928 85.0079 70.86 84.9759 70.732C84.9502 70.6573 84.9028 70.5919 84.8399 70.544C84.7956 70.5131 84.7454 70.4915 84.6925 70.4805C84.6395 70.4695 84.5849 70.4693 84.5319 70.48C84.4046 70.5134 84.2878 70.5787 84.1927 70.6697C84.0975 70.7606 84.027 70.8743 83.9879 71C83.8725 71.281 83.8246 71.5851 83.8479 71.888C83.9079 72.52 84.2479 73.088 84.7279 73.2C84.8131 73.2188 84.9014 73.2184 84.9864 73.1991C85.0715 73.1797 85.1512 73.1418 85.2199 73.088C85.2959 73.012 85.3079 72.94 85.2959 72.936Z" fill="#EB996E"/>
<path d="M82.492 66.964C82.492 66.964 82.404 66.844 82.432 66.596C82.4655 66.4278 82.5355 66.2689 82.6371 66.1307C82.7387 65.9924 82.8694 65.8782 83.02 65.796C83.4707 65.5814 83.9611 65.4629 84.46 65.448C84.7392 65.448 85.0144 65.3821 85.2632 65.2556C85.5121 65.1291 85.7275 64.9456 85.892 64.72C86.1533 64.2113 86.2404 63.631 86.14 63.068C86.064 62.54 85.924 62.064 85.856 61.652C85.7293 61.2106 85.7363 60.7415 85.876 60.304C85.8788 60.7454 85.9284 61.1852 86.024 61.616C86.112 62.016 86.268 62.484 86.364 63.04C86.4848 63.6552 86.3917 64.2931 86.1 64.848C85.9265 65.1348 85.6638 65.3569 85.352 65.48C85.0729 65.5836 84.7808 65.6482 84.484 65.672C84.011 65.6748 83.5427 65.7671 83.104 65.944C82.9666 66.0146 82.8447 66.1118 82.7451 66.2299C82.6455 66.348 82.5704 66.4847 82.524 66.632C82.5061 66.7419 82.4954 66.8528 82.492 66.964Z" fill="#455A64"/>
<path d="M81.732 65.6C81.732 65.6 81.664 65.512 81.636 65.316C81.6037 65.0396 81.6582 64.76 81.792 64.516C81.8838 64.3427 82.0105 64.1901 82.164 64.068C82.3435 63.9334 82.5493 63.838 82.768 63.788C82.9802 63.7426 83.1822 63.6585 83.364 63.54C83.4444 63.4682 83.5074 63.379 83.5483 63.2792C83.5892 63.1794 83.6069 63.0716 83.6 62.964C83.6 62.728 83.572 62.476 83.58 62.224C83.5833 61.9833 83.6101 61.7435 83.66 61.508C83.7408 61.1102 83.894 60.7305 84.112 60.388C84.1814 60.2624 84.281 60.156 84.4018 60.0784C84.5226 60.0009 84.6609 59.9547 84.804 59.944C85.012 59.944 85.1 60.04 85.092 60.048C85.084 60.056 84.988 60.012 84.812 60.048C84.6918 60.0737 84.579 60.1268 84.4826 60.2031C84.3862 60.2794 84.3086 60.3769 84.256 60.488C84.0755 60.8235 83.9486 61.1853 83.88 61.56C83.8413 61.782 83.8212 62.0068 83.82 62.232C83.82 62.464 83.856 62.712 83.844 62.984C83.8499 63.1264 83.823 63.2682 83.7654 63.3986C83.7079 63.529 83.6212 63.6444 83.512 63.736C83.3055 63.8743 83.0726 63.9682 82.828 64.012C82.6459 64.0432 82.4724 64.1128 82.3193 64.2163C82.1662 64.3197 82.0369 64.4547 81.94 64.612C81.7757 64.914 81.7034 65.2575 81.732 65.6Z" fill="#455A64"/>
<path d="M100.116 57.308C100.136 57.308 99.88 57.48 99.468 57.288C99.236 57.1622 99.033 56.9891 98.872 56.78C98.6737 56.5198 98.4264 56.301 98.144 56.136C97.7767 55.9295 97.3573 55.8343 96.9368 55.862C96.5164 55.8897 96.113 56.0391 95.776 56.292C95.376 56.572 95.044 56.968 94.576 57.296C94.3381 57.4725 94.0654 57.5966 93.776 57.66C93.4765 57.7125 93.1684 57.6834 92.884 57.576C92.316 57.372 91.868 57.024 91.38 56.848C90.9091 56.6672 90.4084 56.5763 89.904 56.58C89.0351 56.5789 88.1906 56.8674 87.504 57.4C87.0454 57.7583 86.6644 58.206 86.384 58.716C86.188 59.08 86.116 59.304 86.096 59.296C86.076 59.288 86.096 59.236 86.128 59.128C86.1733 58.9723 86.2295 58.8199 86.296 58.672C86.5544 58.1273 86.93 57.6465 87.396 57.264C88.0981 56.6901 88.9734 56.3701 89.88 56.356C90.4139 56.3421 90.9452 56.4332 91.444 56.624C91.972 56.816 92.428 57.164 92.944 57.344C93.1885 57.4381 93.4538 57.4644 93.712 57.42C93.9624 57.3626 94.1981 57.2536 94.404 57.1C94.824 56.8 95.176 56.404 95.604 56.108C95.9997 55.8116 96.4816 55.6528 96.976 55.656C97.3977 55.6591 97.8114 55.7721 98.176 55.984C98.4681 56.1703 98.722 56.4106 98.924 56.692C99.0641 56.8975 99.2453 57.0718 99.456 57.204C99.6545 57.3221 99.8908 57.3593 100.116 57.308Z" fill="#455A64"/>
<path d="M93.808 72.9641C93.908 72.9641 94.02 73.6121 94.676 73.9921C95.332 74.3721 96.032 74.1801 96.056 74.2721C96.08 74.3641 95.916 74.4321 95.616 74.4881C95.224 74.5609 94.8188 74.4929 94.472 74.2961C94.1398 74.1038 93.8937 73.7919 93.784 73.4241C93.712 73.148 93.76 72.9681 93.808 72.9641Z" fill="#263238"/>
<path d="M135.2 135.464C133.982 134.418 132.402 133.892 130.8 134L128.096 142.588C130.076 142.676 132.052 143.696 133.964 143.172C134.728 142.937 135.408 142.488 135.924 141.878C136.441 141.268 136.773 140.524 136.88 139.732C136.963 138.938 136.854 138.136 136.562 137.393C136.269 136.65 135.802 135.988 135.2 135.464Z" fill="#35335E"/>
<path d="M130.832 133.804C130.832 133.736 131.124 133.68 131.632 133.684C132.388 133.698 133.136 133.84 133.844 134.104C134.926 134.526 135.863 135.252 136.54 136.196C136.954 136.756 137.259 137.388 137.44 138.06C137.636 138.796 137.658 139.567 137.504 140.312C137.355 141.067 137.018 141.773 136.524 142.364C136.051 142.902 135.452 143.314 134.78 143.564C133.689 143.95 132.512 144.026 131.38 143.784C130.651 143.641 129.941 143.42 129.26 143.124C128.784 142.92 128.532 142.768 128.556 142.7C128.58 142.632 128.868 142.652 129.356 142.736C129.844 142.82 130.584 142.976 131.464 143.056C132.462 143.167 133.472 143.029 134.404 142.656C134.915 142.44 135.367 142.105 135.724 141.68C136.098 141.215 136.353 140.666 136.468 140.08C136.578 139.499 136.57 138.903 136.444 138.326C136.318 137.748 136.077 137.202 135.736 136.72C135.185 135.885 134.427 135.207 133.536 134.752C132.905 134.454 132.244 134.223 131.564 134.064C131.104 133.96 130.824 133.876 130.832 133.804Z" fill="#F5F5F5"/>
<path d="M105.78 166.024L99.8999 182.5L120.36 189.92C120.952 187.92 111.788 180.16 111.788 180.16L115.988 169.76L105.78 166.024Z" fill="#35335E"/>
<g opacity="0.6">
<path opacity="0.6" d="M105.784 176.98C105.565 176.968 105.35 177.038 105.179 177.175C105.009 177.312 104.895 177.508 104.86 177.724C104.84 177.941 104.905 178.158 105.04 178.329C105.176 178.5 105.372 178.613 105.588 178.644C105.821 178.656 106.05 178.581 106.231 178.433C106.412 178.285 106.53 178.075 106.564 177.844C106.564 177.408 106.132 176.908 105.7 176.968" fill="white"/>
</g>
<path d="M99.8999 182.5L100.496 180.84L119.928 188.592C119.928 188.592 120.696 189.316 120.36 189.92L99.8999 182.5Z" fill="white"/>
<path d="M112.16 180.176C112.12 180.276 111.604 180.14 110.996 180.284C110.388 180.428 109.972 180.752 109.896 180.684C109.82 180.616 110.176 180.088 110.916 179.928C111.656 179.768 112.212 180.092 112.16 180.176Z" fill="#263238"/>
<path d="M114 181.844C114 181.948 113.492 181.96 113 182.244C112.508 182.528 112.248 182.956 112.148 182.916C112.048 182.876 112.192 182.288 112.812 181.924C113.432 181.56 114 181.748 114 181.844Z" fill="#263238"/>
<path d="M114.268 184.852C114.172 184.852 114.212 184.292 114.668 183.836C115.124 183.38 115.668 183.336 115.68 183.436C115.692 183.536 115.3 183.72 114.932 184.1C114.564 184.48 114.372 184.88 114.268 184.852Z" fill="#263238"/>
<path d="M112.852 177.7C112.776 177.776 112.368 177.472 111.792 177.3C111.216 177.128 110.708 177.152 110.688 177.048C110.668 176.944 111.216 176.74 111.888 176.948C112.56 177.156 112.932 177.64 112.852 177.7Z" fill="#263238"/>
<path d="M113.244 175.096C112.877 175.064 112.525 174.934 112.224 174.72C111.877 174.522 111.557 174.28 111.272 174C111.101 173.837 110.942 173.662 110.796 173.476C110.704 173.371 110.628 173.252 110.572 173.124C110.532 173.029 110.525 172.924 110.551 172.824C110.578 172.725 110.638 172.638 110.72 172.576C110.795 172.525 110.881 172.491 110.972 172.479C111.062 172.466 111.154 172.475 111.24 172.504C111.37 172.551 111.492 172.615 111.604 172.696C111.804 172.83 111.991 172.981 112.164 173.148C112.453 173.428 112.696 173.752 112.884 174.108C113.09 174.42 113.194 174.787 113.184 175.16C113.128 175.16 113.008 174.78 112.66 174.24C112.454 173.929 112.209 173.646 111.932 173.396C111.768 173.249 111.593 173.115 111.408 172.996C111.212 172.86 111.028 172.792 110.94 172.868C110.852 172.944 110.896 172.912 110.92 172.992C110.962 173.086 111.017 173.174 111.084 173.252C111.215 173.429 111.358 173.598 111.512 173.756C111.772 174.03 112.057 174.277 112.364 174.496C112.892 174.876 113.268 175.044 113.244 175.096Z" fill="#263238"/>
<path d="M113.064 175.2C112.977 174.837 113.008 174.456 113.152 174.112C113.273 173.726 113.458 173.364 113.7 173.04C113.845 172.85 114.007 172.673 114.184 172.512C114.289 172.398 114.422 172.312 114.57 172.263C114.717 172.214 114.875 172.203 115.028 172.232C115.118 172.268 115.197 172.329 115.254 172.407C115.311 172.486 115.345 172.579 115.352 172.676C115.359 172.81 115.349 172.945 115.32 173.076C115.257 173.401 115.13 173.71 114.946 173.984C114.762 174.259 114.524 174.494 114.248 174.676C113.656 175.076 113.196 175.028 113.2 174.992C113.204 174.956 113.6 174.864 114.096 174.464C114.378 174.234 114.607 173.946 114.768 173.62C114.861 173.43 114.927 173.228 114.964 173.02C115.012 172.792 114.992 172.584 114.904 172.58C114.814 172.577 114.724 172.593 114.641 172.628C114.558 172.664 114.484 172.717 114.424 172.784C114.258 172.924 114.105 173.08 113.968 173.248C113.733 173.535 113.542 173.854 113.4 174.196C113.152 174.8 113.124 175.2 113.064 175.2Z" fill="#263238"/>
<path d="M85.9599 122.024C82.8559 122.096 79.9119 122.532 77.7719 124.784C74.9359 127.772 71.4319 132.024 71.2319 134.972C70.9359 139.372 73.5959 140.692 75.5359 141.772C76.3941 142.236 77.3611 142.461 78.3359 142.424L114.208 142.152L115.332 136.076L92.1319 130.356L93.0959 121.624L85.9599 122.024Z" fill="#263238"/>
<path d="M93.116 121.62L104.4 121.1C104.4 121.1 123.896 122.184 128.052 125.996C132.208 129.808 131.692 134.14 130.304 138.296C128.916 142.452 116.704 169.048 116.704 169.048C116.704 169.048 117.696 170.74 117.14 172.428C116.915 173.167 116.502 173.835 115.941 174.367C115.38 174.898 114.69 175.275 113.94 175.46L103.092 171.46C103.092 171.46 101.62 170.94 102.66 169.552C103.7 168.164 104.392 167.908 104.392 167.908V165.136C104.392 165.136 108.204 158.204 108.548 157.252C108.892 156.3 112.548 142.196 112.548 142.196L114.976 138.024C114.976 138.024 109.108 135.264 104.02 133.264L92.14 130.336L93.116 121.62Z" fill="#263238"/>
<path d="M111.42 170.972C111.092 170.781 110.774 170.573 110.468 170.348C108.935 169.355 107.209 168.699 105.404 168.424C105.025 168.387 104.649 168.331 104.276 168.256C104.657 168.212 105.041 168.219 105.42 168.276C107.27 168.474 109.038 169.146 110.552 170.228C110.873 170.437 111.165 170.687 111.42 170.972Z" fill="#455A64"/>
<path d="M116.84 169.068C116.603 168.874 116.392 168.651 116.212 168.404C115.844 167.976 115.356 167.368 114.848 166.672C114.34 165.976 113.9 165.332 113.6 164.856C113.421 164.607 113.271 164.339 113.152 164.056C113.367 164.273 113.557 164.513 113.72 164.772L115.016 166.548C115.5 167.204 115.944 167.796 116.328 168.312C116.526 168.545 116.697 168.798 116.84 169.068Z" fill="#455A64"/>
<path d="M120.8 134.232C120.8 134.264 120.4 134.352 119.772 134.56C118.127 135.103 116.638 136.033 115.428 137.272C115.192 137.544 114.942 137.805 114.68 138.052C114.849 137.729 115.065 137.432 115.32 137.172C115.902 136.515 116.575 135.945 117.32 135.48C118.064 135.012 118.873 134.655 119.72 134.42C120.068 134.303 120.432 134.24 120.8 134.232Z" fill="#455A64"/>
<path d="M109.72 153.064C109.725 152.984 109.739 152.904 109.764 152.828L109.932 152.168L110.58 149.748L112.8 141.784C113.252 140.228 113.636 138.748 114.072 137.404C114.532 136.236 115.228 135.175 116.116 134.288C116.702 133.687 117.351 133.15 118.052 132.688C118.304 132.528 118.5 132.408 118.64 132.336C118.707 132.293 118.778 132.257 118.852 132.228C118.852 132.228 118.58 132.412 118.1 132.752C117.422 133.236 116.793 133.784 116.22 134.388C115.363 135.272 114.694 136.319 114.252 137.468C113.852 138.792 113.452 140.292 113 141.84L110.724 149.784C110.428 150.78 110.184 151.592 110.008 152.184C109.924 152.448 109.86 152.664 109.804 152.832C109.787 152.913 109.758 152.991 109.72 153.064Z" fill="#455A64"/>
<path d="M99.7399 132.748C99.6799 132.748 99.4439 130.644 99.2079 128.036C98.9719 125.428 98.8079 123.308 98.8879 123.304C98.9679 123.3 99.1799 125.408 99.4159 128.016C99.6519 130.624 99.7959 132.744 99.7399 132.748Z" fill="#455A64"/>
<path d="M80.956 138.4C80.924 138.4 80.752 138.076 80.396 137.576C79.9364 136.926 79.3854 136.345 78.76 135.852C78.1297 135.365 77.4334 134.971 76.692 134.68C76.12 134.456 75.748 134.372 75.756 134.336C76.0927 134.352 76.4248 134.421 76.74 134.54C78.3043 135.056 79.6405 136.099 80.52 137.492C80.7142 137.769 80.8615 138.075 80.956 138.4Z" fill="#455A64"/>
<path d="M87.8679 130.72C87.8679 130.752 87.3719 130.448 86.5439 130.068C84.3714 129.081 81.9618 128.737 79.5999 129.076C78.6999 129.204 78.1519 129.364 78.1439 129.328C78.2603 129.262 78.3856 129.214 78.5159 129.184C78.8635 129.076 79.2176 128.991 79.5759 128.928C81.9649 128.509 84.4253 128.862 86.5999 129.936C86.9259 130.097 87.2413 130.279 87.5439 130.48C87.6626 130.545 87.7716 130.625 87.8679 130.72Z" fill="#455A64"/>
<path d="M114.892 136.064C114.796 136.059 114.7 136.043 114.608 136.016L113.808 135.844L110.888 135.2C108.42 134.648 105.004 133.904 101.216 133.156C97.428 132.408 93.988 131.788 91.496 131.36L88.54 130.852L87.74 130.712C87.6455 130.701 87.5528 130.678 87.464 130.644C87.559 130.647 87.6538 130.655 87.748 130.668L88.548 130.772C89.248 130.868 90.26 131.02 91.512 131.216C94.012 131.616 97.46 132.2 101.252 132.952C105.044 133.704 108.452 134.468 110.916 135.056C112.144 135.352 113.14 135.6 113.824 135.78L114.624 135.988C114.715 136.005 114.805 136.031 114.892 136.064Z" fill="#455A64"/>
<path d="M92.152 131.38C92.112 131.38 92.028 130.908 91.656 130.236C91.4383 129.848 91.1692 129.492 90.856 129.176C90.4609 128.787 90.0414 128.424 89.6 128.088C88.7866 127.487 87.9265 126.952 87.028 126.488C86.6478 126.307 86.2815 126.099 85.932 125.864C86.3345 125.991 86.7242 126.156 87.096 126.356C88.0243 126.786 88.9062 127.31 89.728 127.92C90.1755 128.261 90.5979 128.634 90.992 129.036C91.3132 129.369 91.5829 129.748 91.792 130.16C91.9357 130.439 92.0445 130.734 92.116 131.04C92.149 131.15 92.1612 131.265 92.152 131.38Z" fill="#455A64"/>
<path d="M132.108 136.8C132.152 136.848 131.552 137.452 131.084 138.376C130.616 139.3 130.464 140.132 130.404 140.12C130.403 139.473 130.574 138.838 130.9 138.28C131.165 137.689 131.582 137.178 132.108 136.8Z" fill="#263238"/>
<g opacity="0.3">
<path opacity="0.3" d="M106.432 95.816L109 113.904L109.128 114.192C109.73 107.939 108.805 101.633 106.432 95.816Z" fill="black"/>
</g>
<path d="M120.26 106.208L111.912 120.8L91.34 121.248L91.288 122.18L111.208 122.032L111.84 122.008L132.872 122.052L137.124 114.72L142.556 106.936C142.635 106.821 142.68 106.686 142.688 106.546C142.695 106.407 142.665 106.268 142.6 106.144C142.534 106.021 142.436 105.918 142.317 105.846C142.197 105.774 142.06 105.736 141.92 105.736L120.924 105.816C120.789 105.817 120.656 105.854 120.539 105.923C120.423 105.991 120.326 106.09 120.26 106.208Z" fill="#E0E0E0"/>
<path d="M137.124 114.732C137.124 114.732 138.204 115.724 138.036 116.564C137.868 117.404 137.92 118.032 137.124 118.088C137.139 118.395 137.035 118.697 136.834 118.93C136.633 119.163 136.35 119.31 136.044 119.34C136.044 119.34 136.288 120.66 134.752 120.888C134.752 120.888 134.28 122.3 133.312 121.956C132.754 121.766 132.218 121.518 131.712 121.216L131.428 120.704C131.428 120.704 130 120.168 130.352 119.364C130.568 118.876 131.304 118.748 131.304 118.748C131.219 118.548 131.183 118.33 131.199 118.113C131.215 117.896 131.283 117.686 131.396 117.5C131.736 117.04 132.848 117.42 132.848 117.42C132.825 117.026 132.951 116.638 133.2 116.332C133.6 115.88 135.352 117.1 135.352 117.1L136.316 115.948L137.124 114.732Z" fill="#FFBE9D"/>
<path d="M134.752 120.888C134.128 120.622 133.533 120.294 132.976 119.908C132.382 119.58 131.825 119.192 131.312 118.748C131.935 119.016 132.53 119.346 133.088 119.732C133.68 120.06 134.238 120.448 134.752 120.888Z" fill="#EB996E"/>
<path d="M136.044 119.34C135.464 119.112 134.911 118.819 134.396 118.468C133.846 118.176 133.329 117.825 132.856 117.42C133.437 117.646 133.99 117.939 134.504 118.292C135.054 118.584 135.571 118.935 136.044 119.34Z" fill="#EB996E"/>
<path d="M134.284 116.444C134.316 116.384 134.976 116.732 135.744 117.22C136.22 117.495 136.678 117.799 137.116 118.132C137.088 118.2 136.4 117.888 135.632 117.396C135.15 117.127 134.699 116.808 134.284 116.444Z" fill="#EB996E"/>
<path d="M142.556 106.296C142.523 106.301 142.489 106.301 142.456 106.296H142.16H141.024L136.848 106.328L123.068 106.36H122.064C121.916 106.346 121.767 106.372 121.633 106.435C121.498 106.499 121.383 106.597 121.3 106.72C120.98 107.291 120.668 107.853 120.364 108.408L118.588 111.608L115.576 117.02C114.72 118.548 114.02 119.788 113.528 120.664C113.292 121.064 113.1 121.408 112.964 121.648L112.812 121.9L112.756 121.984C112.756 121.984 112.756 121.948 112.792 121.888L112.928 121.624L113.46 120.624L115.46 116.948L118.436 111.512C118.996 110.492 119.588 109.42 120.196 108.312L121.136 106.612C121.239 106.46 121.379 106.338 121.545 106.257C121.71 106.177 121.893 106.142 122.076 106.156H123.08L136.86 106.184L141.036 106.22L142.172 106.24H142.468C142.5 106.254 142.53 106.273 142.556 106.296Z" fill="#263238"/>
<path d="M127.756 113.636C127.659 113.777 127.604 113.942 127.599 114.113C127.594 114.284 127.638 114.452 127.726 114.599C127.814 114.745 127.942 114.863 128.096 114.938C128.249 115.013 128.421 115.043 128.591 115.023C128.76 115.003 128.92 114.934 129.052 114.825C129.184 114.717 129.281 114.572 129.333 114.409C129.385 114.246 129.388 114.072 129.343 113.907C129.299 113.742 129.207 113.594 129.08 113.48C128.883 113.326 128.634 113.257 128.386 113.286C128.138 113.315 127.912 113.441 127.756 113.636Z" fill="white"/>
<g opacity="0.3">
<path opacity="0.3" d="M69.356 108C69.18 108.072 68.976 108.192 68.976 108.4C68.9823 108.477 69.0146 108.55 69.0676 108.607C69.1206 108.664 69.1912 108.701 69.268 108.712C69.5614 108.67 69.8487 108.594 70.124 108.484C72.2879 108.008 74.0679 108.464 76.1239 109.284L76.1919 109.216C75.3759 107.444 71.684 107.052 69.356 108Z" fill="black"/>
</g>
<path d="M180.8 189.2C180.8 189.256 144.62 189.304 100 189.304C55.38 189.304 19.2 189.24 19.2 189.2C19.2 189.16 55.372 189.096 100 189.096C144.628 189.096 180.8 189.124 180.8 189.2Z" fill="#263238"/>
<path d="M58.168 61.684C58.236 61.752 71.52 57.188 71.52 57.188L66.4 45.468L54.588 50L61.092 53.736L58.168 61.684Z" fill="#455A64"/>
<path d="M64.4 48.996V33.04C64.4 33.04 82.724 29.688 95.928 29.888C109.132 30.088 122.728 32.252 122.728 32.252V47.572C122.728 47.572 81.344 43.876 64.4 48.996Z" fill="#455A64"/>
<path d="M64.3041 49.012L71.5041 57.256V47.572C71.5041 47.572 65.4841 48.292 64.3041 49.012Z" fill="#263238"/>
<path d="M64.4 33.036C64.46 33.036 64.484 36.636 64.46 41.036C64.436 45.436 64.364 49.036 64.308 49.036C64.252 49.036 64.224 45.46 64.248 41.036C64.272 36.612 64.34 33.036 64.4 33.036Z" fill="#263238"/>
<path d="M128.928 60.46C128.86 60.528 115.576 55.964 115.576 55.964L120.684 44.24L132.508 48.764L126 52.5L128.928 60.46Z" fill="#455A64"/>
<path d="M122.8 47.788L115.6 56.032V47.048C118.014 47.1307 120.42 47.3779 122.8 47.788Z" fill="#263238"/>
<path d="M122.72 32.252C122.776 32.252 122.84 35.728 122.86 40.02C122.88 44.312 122.86 47.788 122.792 47.788C122.724 47.788 122.672 44.312 122.652 40.02C122.632 35.728 122.66 32.252 122.72 32.252Z" fill="#263238"/>
<path d="M74.732 40.036C74.6942 39.5766 74.7927 39.1163 75.0152 38.7127C75.2376 38.309 75.5741 37.9798 75.9826 37.7664C76.3912 37.553 76.8535 37.4647 77.312 37.5127C77.7704 37.5606 78.2045 37.7427 78.56 38.036L78 38.708C77.8492 38.5704 77.6699 38.4679 77.4749 38.4077C77.2799 38.3476 77.074 38.3313 76.872 38.36C76.5134 38.4099 76.1893 38.6001 75.971 38.8889C75.7527 39.1777 75.6581 39.5414 75.708 39.9C75.7578 40.2586 75.9481 40.5827 76.2369 40.801C76.5257 41.0192 76.8894 41.1139 77.248 41.064C77.4513 41.0373 77.6461 40.9652 77.8178 40.853C77.9895 40.7408 78.1338 40.5915 78.24 40.416L78.944 40.908C78.6831 41.2875 78.3162 41.5815 77.889 41.7534C77.4618 41.9253 76.9934 41.9673 76.5425 41.8742C76.0916 41.7811 75.6781 41.557 75.3539 41.2301C75.0297 40.9031 74.8092 40.4877 74.72 40.036H74.732Z" fill="white"/>
<path d="M79.096 39.436C79.0215 38.9742 79.0874 38.5007 79.2851 38.0767C79.4828 37.6528 79.8033 37.298 80.205 37.0583C80.6066 36.8185 81.071 36.7049 81.538 36.7321C82.005 36.7593 82.4531 36.9261 82.8242 37.2108C83.1953 37.4956 83.4724 37.8852 83.6196 38.3293C83.7667 38.7733 83.7772 39.2513 83.6496 39.7013C83.522 40.1513 83.2622 40.5527 82.9039 40.8534C82.5456 41.1542 82.1053 41.3404 81.64 41.388C81.3436 41.4353 81.0407 41.4217 80.7498 41.348C80.4589 41.2743 80.1861 41.142 79.948 40.9593C79.7099 40.7767 79.5116 40.5474 79.3651 40.2854C79.2186 40.0235 79.127 39.7345 79.096 39.436ZM82.7399 39.06C82.7074 38.8005 82.5992 38.5563 82.4288 38.3578C82.2584 38.1594 82.0334 38.0155 81.7817 37.9441C81.5301 37.8728 81.263 37.8771 81.0138 37.9565C80.7646 38.0359 80.5443 38.187 80.3803 38.3908C80.2164 38.5946 80.1161 38.8422 80.092 39.1026C80.0678 39.3631 80.1209 39.6249 80.2446 39.8553C80.3682 40.0858 80.557 40.2748 80.7874 40.3987C81.0177 40.5226 81.2795 40.5759 81.54 40.552C81.7196 40.5402 81.8947 40.4912 82.0544 40.4082C82.2141 40.3251 82.3548 40.2098 82.4676 40.0696C82.5804 39.9293 82.6629 39.7672 82.7098 39.5934C82.7566 39.4196 82.7669 39.238 82.7399 39.06Z" fill="white"/>
<path d="M88.524 40.768L88.352 38.216L87.236 40.4L86.796 40.428L85.416 38.46L85.58 40.956L84.656 41.016L84.4 36.764L85.2 36.712L86.96 39.252L88.356 36.512L89.156 36.46L89.444 40.708L88.524 40.768Z" fill="white"/>
<path d="M94.032 37.856C94.056 38.808 93.36 39.416 92.224 39.456L91.364 39.48L91.4 40.656L90.412 40.684L90.292 36.4L92.136 36.348C93.276 36.332 94 36.904 94.032 37.856ZM93.032 37.884C93.032 37.416 92.708 37.152 92.104 37.168L91.304 37.192L91.348 38.672L92.148 38.648C92.748 38.632 93.044 38.348 93.032 37.884Z" fill="white"/>
<path d="M94.8 36.308H95.784V39.764H97.92V40.564H94.8V36.308Z" fill="white"/>
<path d="M101.74 39.888V40.688L98.4401 40.592L98.5641 36.332L101.764 36.428L101.74 37.228L99.5001 37.16L99.4761 38.088L101.452 38.144L101.428 38.912L99.4521 38.852L99.4241 39.84L101.74 39.888Z" fill="white"/>
<path d="M103.564 37.32L102.204 37.24L102.252 36.44L105.956 36.664L105.908 37.464L104.548 37.38L104.34 40.832L103.356 40.772L103.564 37.32Z" fill="white"/>
<path d="M109.544 40.472L109.472 41.272L106.184 40.968L106.584 36.728L109.784 37.024L109.712 37.824L107.48 37.6L107.396 38.524L109.364 38.704L109.296 39.468L107.324 39.288L107.236 40.268L109.544 40.472Z" fill="white"/>
<path d="M110.776 37.116L112.692 37.372C114.072 37.556 114.908 38.512 114.74 39.772C114.572 41.032 113.508 41.772 112.128 41.572L110.212 41.316L110.776 37.116ZM112.188 40.784C112.362 40.8119 112.54 40.8047 112.711 40.7627C112.883 40.7208 113.044 40.6449 113.185 40.5397C113.327 40.4344 113.446 40.3018 113.535 40.1499C113.624 39.9979 113.682 39.8295 113.706 39.6547C113.729 39.4799 113.717 39.3022 113.67 39.1322C113.624 38.9621 113.544 38.8031 113.435 38.6645C113.326 38.5259 113.19 38.4106 113.036 38.3253C112.881 38.24 112.711 38.1865 112.536 38.168L111.644 38.048L111.296 40.664L112.188 40.784Z" fill="white"/>
<path d="M130.916 33.704L131.964 34.932L134.916 33.704L134.052 32.412L130.916 33.704Z" fill="#455A64"/>
<path d="M129.564 27.86C129.564 28.1638 129.474 28.4607 129.305 28.7133C129.136 28.9659 128.896 29.1628 128.616 29.2791C128.335 29.3953 128.026 29.4257 127.728 29.3665C127.43 29.3072 127.157 29.1609 126.942 28.9461C126.727 28.7313 126.581 28.4576 126.521 28.1596C126.462 27.8617 126.493 27.5528 126.609 27.2722C126.725 26.9915 126.922 26.7516 127.175 26.5828C127.427 26.4141 127.724 26.324 128.028 26.324C128.435 26.325 128.825 26.4872 129.113 26.775C129.401 27.0629 129.563 27.4529 129.564 27.86Z" fill="#35335E"/>
<path d="M95.156 50.772C95.1552 50.9242 95.1091 51.0728 95.0237 51.1988C94.9383 51.3248 94.8174 51.4226 94.6763 51.4797C94.5352 51.5369 94.3803 51.5508 94.2313 51.5197C94.0822 51.4886 93.9458 51.414 93.8393 51.3052C93.7328 51.1964 93.661 51.0585 93.633 50.9088C93.6051 50.7592 93.6223 50.6046 93.6824 50.4647C93.7424 50.3249 93.8427 50.206 93.9705 50.1233C94.0983 50.0405 94.2478 49.9976 94.4 50C94.6023 50.0031 94.7952 50.086 94.9367 50.2305C95.0783 50.3751 95.1571 50.5697 95.156 50.772Z" fill="#35335E"/>
<path d="M59.376 39.228C59.376 39.3438 59.3415 39.457 59.277 39.5532C59.2125 39.6495 59.1208 39.7243 59.0136 39.7682C58.9064 39.8122 58.7886 39.8233 58.6751 39.8001C58.5616 39.7769 58.4576 39.7205 58.3762 39.638C58.2949 39.5555 58.2399 39.4507 58.2183 39.3369C58.1966 39.2231 58.2094 39.1055 58.2548 38.9989C58.3002 38.8923 58.3763 38.8017 58.4734 38.7385C58.5705 38.6753 58.6842 38.6424 58.8 38.644C58.9535 38.6461 59.1 38.7085 59.2078 38.8178C59.3156 38.9271 59.376 39.0745 59.376 39.228Z" fill="#35335E"/>
<path d="M57.208 32.8L58.928 32.904L59.744 29.52L58.136 29.588L57.208 32.8Z" fill="#455A64"/>
<path d="M110.968 59.812L111.548 61.436L114.98 60.86L114.288 59.408L110.968 59.812Z" fill="#35335E"/>
<path d="M76.256 50.4399L75.196 51.7999L77.52 54.3879L78.376 53.0239L76.256 50.4399Z" fill="#455A64"/>
<path d="M72.148 18.492L76.208 22.632L81.924 20.472L82.152 21.892L79.676 26.96L81.96 30.744L81.768 31.876L76.236 30.944L72.964 34.532L72.196 33.952L71.52 29.388L66.36 26.7L66.132 25.656L71.328 24.236L72.148 18.492Z" fill="#35335E"/>
<g opacity="0.3">
<path opacity="0.3" d="M72.148 18.492L76.208 22.632L81.924 20.472L82.152 21.892L79.676 26.96L81.96 30.744L81.768 31.876L76.236 30.944L72.964 34.532L72.196 33.952L71.52 29.388L66.36 26.7L66.132 25.656L71.328 24.236L72.148 18.492Z" fill="black"/>
</g>
<path d="M72.148 17.328L76.208 21.472L81.924 20.472L79.24 25.616L81.96 30.744L76.236 29.784L72.196 33.952L71.344 28.212L66.132 25.656L71.328 23.072L72.148 17.328Z" fill="#35335E"/>
<path d="M114.248 18.492L110.184 22.632L104.468 20.472L104.24 21.892L106.716 26.96L104.432 30.744L104.624 31.876L110.156 30.944L113.428 34.532L114.196 33.952L114.872 29.388L120.032 26.7L120.26 25.656L115.064 24.236L114.248 18.492Z" fill="#35335E"/>
<g opacity="0.3">
<path opacity="0.3" d="M114.248 18.492L110.184 22.632L104.468 20.472L104.24 21.892L106.716 26.96L104.432 30.744L104.624 31.876L110.156 30.944L113.428 34.532L114.196 33.952L114.872 29.388L120.032 26.7L120.26 25.656L115.064 24.236L114.248 18.492Z" fill="black"/>
</g>
<path d="M114.248 17.328L110.184 21.472L104.468 20.472L107.152 25.616L104.432 30.744L110.156 29.784L114.196 33.952L115.048 28.212L120.26 25.656L115.064 23.072L114.248 17.328Z" fill="#35335E"/>
<path d="M93.064 11.224L96.444 17.828L104.24 17.368L103.976 19.184L99.024 24.428L100.364 29.912L99.704 31.22L93.308 27.976L87.952 31.112L87.236 30.108L88.148 24.28L82.876 19.036L82.996 17.68L89.876 17.924L93.064 11.224Z" fill="#35335E"/>
<g opacity="0.3">
<path opacity="0.3" d="M93.064 11.224L96.444 17.828L104.24 17.368L103.976 19.184L99.024 24.428L100.364 29.912L99.704 31.22L93.308 27.976L87.952 31.112L87.236 30.108L88.148 24.28L82.876 19.036L82.996 17.68L89.876 17.924L93.064 11.224Z" fill="black"/>
</g>
<path d="M93.504 9.80798L96.884 16.408L104.24 17.368L99.004 22.624L100.364 29.912L93.752 26.56L87.236 30.108L88.384 22.78L82.996 17.68L90.32 16.504L93.504 9.80798Z" fill="#35335E"/>
<path d="M106.972 69.052L112.62 69.676C114.527 66.9765 117.374 65.0878 120.603 64.381C123.832 63.6743 127.208 64.2007 130.068 65.8567C132.928 67.5127 135.066 70.1786 136.06 73.3305C137.055 76.4823 136.835 79.8922 135.443 82.89C134.051 85.8878 131.589 88.2566 128.539 89.531C125.49 90.8054 122.074 90.8931 118.963 89.777C115.852 88.6609 113.271 86.4216 111.727 83.4993C110.184 80.5769 109.789 77.1828 110.62 73.984L106.972 69.052Z" fill="#FAFAFA"/>
<path d="M106.972 69.052C107.192 69.348 108.336 70.86 110.672 73.96H110.588C110.591 73.9534 110.595 73.9476 110.601 73.9429C110.606 73.9382 110.612 73.9347 110.619 73.9328C110.626 73.9309 110.633 73.9305 110.64 73.9318C110.648 73.933 110.654 73.9358 110.66 73.94C110.669 73.9456 110.677 73.9541 110.681 73.9641C110.685 73.9742 110.686 73.9853 110.684 73.996C110.112 76.24 110.142 78.5955 110.772 80.824C110.957 81.4927 111.202 82.1434 111.504 82.768C111.664 83.088 111.816 83.416 111.988 83.74L112.584 84.688C114.487 87.4469 117.366 89.3811 120.64 90.1C122.452 90.4983 124.328 90.5065 126.144 90.124C128.058 89.7075 129.857 88.8745 131.412 87.684C133.041 86.4469 134.351 84.8381 135.232 82.992C136.144 81.1148 136.594 79.0466 136.544 76.96C136.486 74.964 135.98 73.0065 135.064 71.232C134.203 69.5499 132.982 68.0778 131.488 66.92C128.797 64.8404 125.411 63.8725 122.028 64.216C120.598 64.3876 119.203 64.7732 117.888 65.36C115.796 66.3268 113.994 67.8245 112.66 69.704C112.656 69.7117 112.649 69.7178 112.641 69.7214C112.633 69.725 112.625 69.7259 112.616 69.724L106.972 69.052L112.628 69.624L112.58 69.648C113.909 67.743 115.72 66.2247 117.828 65.248C119.149 64.6391 120.556 64.2371 122 64.056C125.43 63.6929 128.867 64.6641 131.6 66.768C133.12 67.9395 134.361 69.4324 135.236 71.14C136.171 72.94 136.687 74.9284 136.744 76.956C136.797 79.0754 136.341 81.1766 135.416 83.084C134.519 84.9587 133.188 86.592 131.532 87.848C129.951 89.0549 128.124 89.8989 126.18 90.32C124.332 90.7087 122.423 90.6964 120.58 90.284C117.271 89.5546 114.364 87.5941 112.448 84.8L111.848 83.84C111.676 83.512 111.524 83.176 111.36 82.852C111.059 82.2191 110.816 81.5604 110.632 80.884C110.005 78.6317 109.988 76.2529 110.584 73.992L110.68 74.028C110.673 74.0396 110.661 74.0481 110.648 74.0518C110.635 74.0555 110.62 74.0541 110.608 74.048L106.972 69.052Z" fill="#263238"/>
<path d="M118.56 72.576C118.565 72.6373 118.565 72.6988 118.56 72.76C118.56 72.892 118.56 73.06 118.56 73.272C118.56 73.736 118.56 74.38 118.584 75.196C118.584 76.856 118.612 79.196 118.632 81.996L118.54 81.904H127.952C127.976 81.88 127.756 82.1 127.848 82.004V80.724C127.848 80.304 127.848 79.884 127.848 79.468V77.032C127.848 75.456 127.848 73.964 127.848 72.592L127.936 72.684L121.136 72.636L119.212 72.616H118.7H118.516H118.68H119.176L121.076 72.592L127.928 72.548H128.02V72.636C128.02 74.008 128.02 75.5 128.02 77.076V82C128.116 81.908 127.896 82.132 127.916 82.108H118.504H118.412V82C118.412 79.176 118.444 76.82 118.456 75.148C118.456 74.348 118.456 73.7 118.48 73.244C118.48 73.04 118.48 72.876 118.48 72.748C118.499 72.6874 118.526 72.6295 118.56 72.576Z" fill="#263238"/>
<path d="M126.956 74.132C127.092 74.24 125.828 76.064 124.128 78.208C123.792 78.636 123.46 79.044 123.152 79.408L122.952 79.652L122.728 79.448C121.256 78.124 120.26 77.108 120.348 77.004C120.436 76.9 121.592 77.74 123.116 79.004L122.688 79.044C122.98 78.644 123.3 78.244 123.64 77.82C125.336 75.676 126.824 74.028 126.956 74.132Z" fill="#35335E"/>
</svg>
