<svg width="141" height="60" viewBox="0 0 141 60" fill="none" xmlns="http://www.w3.org/2000/svg">
<path d="M33.1371 19.0518C32.225 11.6102 26.3518 5.75176 18.9079 4.85858C18.267 4.78543 17.6225 4.74879 16.9773 4.74866C10.3987 4.75877 4.4752 8.73456 1.97352 14.8189C-0.528164 20.9033 0.885645 27.896 5.55459 32.5306C8.0374 34.9083 9.45928 38.1849 9.49988 41.6224V43.4999H24.4998V41.6127C24.5112 38.2402 25.8832 35.0152 28.3049 32.668C31.9626 29.1389 33.7517 24.0976 33.1369 19.0523V19.0518H33.1371Z" fill="#F5F6FA"/>
<path d="M17 56C18.5887 55.9983 20.0044 54.9972 20.5358 53.5H13.4643C13.9956 54.9972 15.4113 55.9983 17 56Z" fill="#F5F6FA"/>
<path d="M10.75 49.7501C10.751 50.4401 11.31 50.9991 12.0001 51.0001H22.0001C22.6901 50.9991 23.2491 50.4401 23.2501 49.7501V46H10.75V49.7501Z" fill="#F5F6FA"/>
<path d="M12.9395 31.1641C10.8301 30.5723 9.77539 29.21 9.77539 27.0771V25.3369C9.77539 24.1533 9.30078 23.5615 8.35156 23.5615V21.5664C9.30078 21.5664 9.77539 20.9717 9.77539 19.7822V17.9365C9.79297 16.8818 10.0654 16.0293 10.5928 15.3789C11.126 14.7285 11.9082 14.2568 12.9395 13.9639L13.4932 15.5107C12.7549 15.792 12.3711 16.5801 12.3418 17.875V19.7822C12.3418 21.0947 11.7998 22.0205 10.7158 22.5596C11.7998 23.0986 12.3418 24.0273 12.3418 25.3457V27.2441C12.3711 28.5391 12.7549 29.3271 13.4932 29.6084L12.9395 31.1641ZM15.6992 29.0986H13.5986L17.9668 15.2031H20.0762L15.6992 29.0986ZM20.542 29.6084C21.2803 29.3271 21.6641 28.5391 21.6934 27.2441V25.3369C21.6934 24.0186 22.2383 23.0928 23.3281 22.5596C22.2383 22.0264 21.6934 21.1006 21.6934 19.7822V17.875C21.6641 16.5801 21.2803 15.792 20.542 15.5107L21.0957 13.9639C22.1445 14.2568 22.9326 14.7373 23.46 15.4053C23.9873 16.0674 24.2539 16.9375 24.2598 18.0156V19.7822C24.2598 20.9717 24.7344 21.5664 25.6836 21.5664V23.5615C24.7344 23.5615 24.2598 24.1504 24.2598 25.3281V27.2002C24.2188 29.2627 23.1641 30.584 21.0957 31.1641L20.542 29.6084Z" fill="#8EB540"/>
<path d="M72.9728 5.238V18H70.7408V12.618L70.8218 10.494L70.1828 11.466L67.7168 14.364L65.2508 11.466L64.6118 10.494L64.7108 12.618V18H62.4788V5.238H62.6588L67.7348 11.223L72.7748 5.238H72.9728ZM81.8464 16.182H77.3644L76.6984 18H74.1784L79.4884 5.238H79.6684L84.9964 18H82.5484L81.8464 16.182ZM81.1804 14.436L79.8664 11.016L79.5604 10.008L79.2724 11.016L78.0124 14.436H81.1804ZM89.2693 18.198C88.7113 18.198 88.1833 18.132 87.6853 18C87.1933 17.868 86.7613 17.697 86.3893 17.487C86.0173 17.277 85.7233 17.058 85.5073 16.83L86.4253 14.94C86.5633 15.12 86.7733 15.312 87.0553 15.516C87.3373 15.72 87.6583 15.894 88.0183 16.038C88.3843 16.182 88.7473 16.254 89.1073 16.254C89.5813 16.254 89.9773 16.125 90.2953 15.867C90.6193 15.603 90.7813 15.234 90.7813 14.76C90.7813 14.454 90.7063 14.19 90.5563 13.968C90.4123 13.74 90.2173 13.539 89.9713 13.365C89.7313 13.185 89.3593 12.942 88.8553 12.636C88.1653 12.216 87.6253 11.859 87.2353 11.565C86.8453 11.265 86.5063 10.875 86.2183 10.395C85.9363 9.909 85.7953 9.324 85.7953 8.64C85.7953 7.974 85.9363 7.386 86.2183 6.876C86.5063 6.36 86.9293 5.958 87.4873 5.67C88.0453 5.382 88.7173 5.238 89.5033 5.238C90.7813 5.238 91.8493 5.628 92.7073 6.408L91.6993 8.244C91.5973 8.1 91.4443 7.944 91.2403 7.776C91.0363 7.602 90.7903 7.455 90.5023 7.335C90.2143 7.209 89.9113 7.146 89.5933 7.146C89.1313 7.146 88.7713 7.281 88.5133 7.551C88.2613 7.815 88.1353 8.148 88.1353 8.55C88.1353 8.856 88.2103 9.129 88.3603 9.369C88.5163 9.603 88.7173 9.813 88.9633 9.999C89.2153 10.185 89.5513 10.404 89.9713 10.656C90.7333 11.106 91.3153 11.484 91.7173 11.79C92.1193 12.096 92.4553 12.486 92.7253 12.96C93.0013 13.428 93.1393 14.004 93.1393 14.688C93.1393 15.414 92.9833 16.041 92.6713 16.569C92.3593 17.097 91.9123 17.502 91.3303 17.784C90.7483 18.06 90.0613 18.198 89.2693 18.198ZM102.21 7.488H99.3116V18H96.9896V7.488H94.0916V5.454H102.21V7.488ZM110.909 15.966V18H103.997V5.454H110.549V7.416H106.247V10.35H109.667V12.258H106.247V15.966H110.909ZM118.665 18L115.443 13.464V18H113.157V5.454H116.649C119.625 5.454 121.113 6.786 121.113 9.45C121.113 10.044 121.017 10.629 120.825 11.205C120.633 11.775 120.318 12.282 119.88 12.726C119.448 13.17 118.893 13.476 118.215 13.644L121.455 18H118.665ZM116.397 12.33C116.907 12.33 117.342 12.21 117.702 11.97C118.068 11.724 118.344 11.4 118.53 10.998C118.716 10.59 118.809 10.146 118.809 9.666C118.809 8.838 118.617 8.229 118.233 7.839C117.855 7.449 117.225 7.254 116.343 7.254H115.443V12.33H116.397ZM48.2258 41.216C47.3198 41.216 46.4798 40.973 45.7058 40.487C44.9318 39.995 44.3078 39.248 43.8338 38.246C43.3658 37.244 43.1318 36.014 43.1318 34.556C43.1318 33.23 43.3658 32.093 43.8338 31.145C44.3018 30.191 44.9348 29.468 45.7328 28.976C46.5368 28.484 47.4338 28.238 48.4238 28.238C49.0298 28.238 49.5428 28.298 49.9628 28.418C50.3828 28.532 50.7128 28.667 50.9528 28.823C51.1928 28.973 51.4238 29.15 51.6458 29.354L50.6378 31.244C50.4278 31.016 50.2418 30.842 50.0798 30.722C49.9178 30.596 49.7108 30.497 49.4588 30.425C49.2128 30.347 48.8978 30.308 48.5138 30.308C47.9138 30.308 47.3978 30.485 46.9658 30.839C46.5338 31.187 46.2038 31.673 45.9758 32.297C45.7478 32.915 45.6338 33.626 45.6338 34.43C45.6338 35.438 45.7508 36.299 45.9848 37.013C46.2248 37.727 46.5458 38.264 46.9478 38.624C47.3558 38.984 47.8118 39.164 48.3158 39.164C48.8498 39.164 49.3208 39.089 49.7288 38.939C50.1428 38.789 50.4578 38.6 50.6738 38.372L51.6638 40.154C51.2978 40.454 50.8538 40.706 50.3318 40.91C49.8158 41.114 49.1138 41.216 48.2258 41.216ZM62.272 28.454V41H59.932V35.672H55.792V41H53.47V28.454H55.792V33.692H59.932V28.454H62.272ZM71.1501 39.182H66.6681L66.0021 41H63.4821L68.7921 28.238H68.9721L74.3001 41H71.8521L71.1501 39.182ZM70.4841 37.436L69.1701 34.016L68.8641 33.008L68.5761 34.016L67.3161 37.436H70.4841ZM81.543 39.02V41H75.513V28.454H77.799V39.02H81.543ZM89.5586 39.02V41H83.5286V28.454H85.8146V39.02H89.5586ZM98.4022 38.966V41H91.4902V28.454H98.0422V30.416H93.7402V33.35H97.1602V35.258H93.7402V38.966H98.4022ZM109.524 28.454V41.252H109.344L103.332 34.394L102.774 33.674L102.864 35.42V41H100.65V28.238H100.848L106.77 35.15L107.4 35.969L107.31 34.25V28.454H109.524ZM121.658 34.268C121.73 35.012 121.766 35.594 121.766 36.014C121.766 37.61 121.418 38.894 120.722 39.866C120.026 40.838 118.772 41.324 116.96 41.324C115.952 41.324 115.049 41.057 114.251 40.523C113.459 39.989 112.835 39.218 112.379 38.21C111.929 37.196 111.704 35.996 111.704 34.61C111.704 33.38 111.941 32.282 112.415 31.316C112.889 30.35 113.546 29.597 114.386 29.057C115.232 28.511 116.192 28.238 117.266 28.238C117.998 28.238 118.604 28.295 119.084 28.409C119.57 28.523 119.945 28.658 120.209 28.814C120.473 28.97 120.71 29.15 120.92 29.354L119.93 31.352C119.432 30.692 118.556 30.362 117.302 30.362C116.702 30.362 116.159 30.539 115.673 30.893C115.187 31.247 114.806 31.742 114.53 32.378C114.254 33.014 114.116 33.74 114.116 34.556C114.116 35.54 114.233 36.392 114.467 37.112C114.707 37.826 115.043 38.372 115.475 38.75C115.913 39.122 116.42 39.308 116.996 39.308C117.902 39.308 118.553 39.095 118.949 38.669C119.351 38.243 119.552 37.598 119.552 36.734C119.552 36.638 119.546 36.476 119.534 36.248H116.96V34.268H121.658ZM130.728 38.966V41H123.816V28.454H130.368V30.416H126.066V33.35H129.486V35.258H126.066V38.966H130.728ZM136.036 41.198C135.478 41.198 134.95 41.132 134.452 41C133.96 40.868 133.528 40.697 133.156 40.487C132.784 40.277 132.49 40.058 132.274 39.83L133.192 37.94C133.33 38.12 133.54 38.312 133.822 38.516C134.104 38.72 134.425 38.894 134.785 39.038C135.151 39.182 135.514 39.254 135.874 39.254C136.348 39.254 136.744 39.125 137.062 38.867C137.386 38.603 137.548 38.234 137.548 37.76C137.548 37.454 137.473 37.19 137.323 36.968C137.179 36.74 136.984 36.539 136.738 36.365C136.498 36.185 136.126 35.942 135.622 35.636C134.932 35.216 134.392 34.859 134.002 34.565C133.612 34.265 133.273 33.875 132.985 33.395C132.703 32.909 132.562 32.324 132.562 31.64C132.562 30.974 132.703 30.386 132.985 29.876C133.273 29.36 133.696 28.958 134.254 28.67C134.812 28.382 135.484 28.238 136.27 28.238C137.548 28.238 138.616 28.628 139.474 29.408L138.466 31.244C138.364 31.1 138.211 30.944 138.007 30.776C137.803 30.602 137.557 30.455 137.269 30.335C136.981 30.209 136.678 30.146 136.36 30.146C135.898 30.146 135.538 30.281 135.28 30.551C135.028 30.815 134.902 31.148 134.902 31.55C134.902 31.856 134.977 32.129 135.127 32.369C135.283 32.603 135.484 32.813 135.73 32.999C135.982 33.185 136.318 33.404 136.738 33.656C137.5 34.106 138.082 34.484 138.484 34.79C138.886 35.096 139.222 35.486 139.492 35.96C139.768 36.428 139.906 37.004 139.906 37.688C139.906 38.414 139.75 39.041 139.438 39.569C139.126 40.097 138.679 40.502 138.097 40.784C137.515 41.06 136.828 41.198 136.036 41.198Z" fill="#F5F6FA"/>
<path d="M69.2754 52.1211C69.2754 52.8086 69.1934 53.4023 69.0293 53.9023C68.8691 54.4023 68.6504 54.8164 68.373 55.1445C68.0996 55.4688 67.7773 55.7109 67.4062 55.8711C67.0391 56.0273 66.6504 56.1055 66.2402 56.1055C65.748 56.1055 65.3184 56.0176 64.9512 55.8418C64.5879 55.6621 64.2852 55.4043 64.043 55.0684C63.8047 54.7324 63.627 54.3242 63.5098 53.8438C63.3926 53.3594 63.334 52.8145 63.334 52.209C63.334 51.5293 63.4141 50.9395 63.5742 50.4395C63.7344 49.9395 63.9512 49.5273 64.2246 49.2031C64.502 48.875 64.8242 48.6328 65.1914 48.4766C65.5586 48.3164 65.9473 48.2363 66.3574 48.2363C66.8496 48.2363 67.2773 48.3262 67.6406 48.5059C68.0078 48.6855 68.3125 48.9434 68.5547 49.2793C68.7969 49.6113 68.9766 50.0176 69.0938 50.498C69.2148 50.9785 69.2754 51.5195 69.2754 52.1211ZM68.1914 52.1973C68.1914 51.748 68.1562 51.3379 68.0859 50.9668C68.0195 50.5918 67.9102 50.2695 67.7578 50C67.6055 49.7305 67.4082 49.5215 67.166 49.373C66.9277 49.2246 66.6387 49.1504 66.2988 49.1504C65.9707 49.1504 65.6875 49.2305 65.4492 49.3906C65.2148 49.5469 65.0215 49.7617 64.8691 50.0352C64.7168 50.3047 64.6035 50.623 64.5293 50.9902C64.4551 51.3535 64.418 51.7402 64.418 52.1504C64.418 52.6035 64.4531 53.0176 64.5234 53.3926C64.5938 53.7637 64.7031 54.084 64.8516 54.3535C65.0039 54.6191 65.1992 54.8262 65.4375 54.9746C65.6758 55.123 65.9629 55.1973 66.2988 55.1973C66.627 55.1973 66.9102 55.1191 67.1484 54.9629C67.3867 54.8027 67.582 54.5879 67.7344 54.3184C67.8906 54.0449 68.0059 53.7266 68.0801 53.3633C68.1543 53 68.1914 52.6113 68.1914 52.1973ZM79.1039 56H77.7445L75.5121 51.2246L74.8676 49.6895V53.5508V56H73.8949V48.3418H75.2367L77.3637 52.8652L78.1313 54.6172V50.5156V48.3418H79.1039V56ZM89.1668 56H84.7605V48.3418H85.8211V55.1094H89.1668V56ZM96.3645 49.2207H94.6008V48.3418H99.1828V49.2207H97.4191V55.1094H99.1828V56H94.6008V55.1094H96.3645V49.2207ZM109.697 56H108.338L106.105 51.2246L105.461 49.6895V53.5508V56H104.488V48.3418H105.83L107.957 52.8652L108.724 54.6172V50.5156V48.3418H109.697V56ZM119.52 56H115.166V48.3418H119.52V49.2207H116.209V51.5938H119.391V52.4727H116.209V55.1094H119.52V56Z" fill="#F5F6FA"/>
</svg>
